  0
SECTION
  2
HEADER
  0
ENDSEC
 0
SECTION
 2
BLOCKS
 0
BLOCK
  8
LAYER0
  2
BLOCK1
 70
64
 10
0
 20
0
 30
0
  3
BLOCK1
 0
POLYLINE
  8
CUT
  66
     1
 10
0
 20
0
 30
0
 0
VERTEX
  8
CUT
 10
0
 20
878.89
 30
0
 0
VERTEX
  8
CUT
 10
45.4458
 20
880.554
 30
0
 0
VERTEX
  8
CUT
 10
109.421
 20
883.236
 30
0
 0
VERTEX
  8
CUT
 10
208.943
 20
887.188
 30
0
 0
VERTEX
  8
CUT
 10
284.595
 20
890.803
 30
0
 0
VERTEX
  8
CUT
 10
285.443
 20
884.463
 30
0
 0
VERTEX
  8
CUT
 10
286.508
 20
881.173
 30
0
 0
VERTEX
  8
CUT
 10
288.235
 20
878.479
 30
0
 0
VERTEX
  8
CUT
 10
290.234
 20
875.959
 30
0
 0
VERTEX
  8
CUT
 10
294.524
 20
871.128
 30
0
 0
VERTEX
  8
CUT
 10
299.426
 20
865.862
 30
0
 0
VERTEX
  8
CUT
 10
314.963
 20
850.155
 30
0
 0
VERTEX
  8
CUT
 10
330.856
 20
834.811
 30
0
 0
VERTEX
  8
CUT
 10
343.068
 20
823.655
 30
0
 0
VERTEX
  8
CUT
 10
355.558
 20
812.807
 30
0
 0
VERTEX
  8
CUT
 10
368.918
 20
802.07
 30
0
 0
VERTEX
  8
CUT
 10
371.232
 20
800.074
 30
0
 0
VERTEX
  8
CUT
 10
375.22
 20
797.775
 30
0
 0
VERTEX
  8
CUT
 10
379.421
 20
795.87
 30
0
 0
VERTEX
  8
CUT
 10
384.204
 20
794.079
 30
0
 0
VERTEX
  8
CUT
 10
389.116
 20
792.705
 30
0
 0
VERTEX
  8
CUT
 10
397.219
 20
791.415
 30
0
 0
VERTEX
  8
CUT
 10
405.405
 20
790.65
 30
0
 0
VERTEX
  8
CUT
 10
431.247
 20
789.35
 30
0
 0
VERTEX
  8
CUT
 10
464.884
 20
787.937
 30
0
 0
VERTEX
  8
CUT
 10
532.238
 20
785.08
 30
0
 0
VERTEX
  8
CUT
 10
562.746
 20
783.736
 30
0
 0
VERTEX
  8
CUT
 10
571.641
 20
783.353
 30
0
 0
VERTEX
  8
CUT
 10
575.972
 20
783.358
 30
0
 0
VERTEX
  8
CUT
 10
580.272
 20
783.731
 30
0
 0
VERTEX
  8
CUT
 10
582.885
 20
784.3
 30
0
 0
VERTEX
  8
CUT
 10
585.331
 20
785.326
 30
0
 0
VERTEX
  8
CUT
 10
587.262
 20
786.942
 30
0
 0
VERTEX
  8
CUT
 10
588.837
 20
788.933
 30
0
 0
VERTEX
  8
CUT
 10
591.971
 20
795.286
 30
0
 0
VERTEX
  8
CUT
 10
594.496
 20
801.966
 30
0
 0
VERTEX
  8
CUT
 10
606.017
 20
831.341
 30
0
 0
VERTEX
  8
CUT
 10
615.121
 20
856.426
 30
0
 0
VERTEX
  8
CUT
 10
623.846
 20
881.641
 30
0
 0
VERTEX
  8
CUT
 10
626.751
 20
889.467
 30
0
 0
VERTEX
  8
CUT
 10
628.037
 20
893.424
 30
0
 0
VERTEX
  8
CUT
 10
628.956
 20
897.463
 30
0
 0
VERTEX
  8
CUT
 10
628.89
 20
902.289
 30
0
 0
VERTEX
  8
CUT
 10
629.009
 20
903.289
 30
0
 0
VERTEX
  8
CUT
 10
629.375
 20
903.82
 30
0
 0
VERTEX
  8
CUT
 10
629.939
 20
904.028
 30
0
 0
VERTEX
  8
CUT
 10
630.843
 20
904.11
 30
0
 0
VERTEX
  8
CUT
 10
632.929
 20
904.122
 30
0
 0
VERTEX
  8
CUT
 10
666.187
 20
905.357
 30
0
 0
VERTEX
  8
CUT
 10
713.924
 20
906.795
 30
0
 0
VERTEX
  8
CUT
 10
722.614
 20
907.178
 30
0
 0
VERTEX
  8
CUT
 10
729.411
 20
907.523
 30
0
 0
VERTEX
  8
CUT
 10
730.681
 20
907.287
 30
0
 0
VERTEX
  8
CUT
 10
731.46
 20
906.281
 30
0
 0
VERTEX
  8
CUT
 10
731.697
 20
905.113
 30
0
 0
VERTEX
  8
CUT
 10
733.393
 20
895.131
 30
0
 0
VERTEX
  8
CUT
 10
745.936
 20
834.851
 30
0
 0
VERTEX
  8
CUT
 10
757.137
 20
779.38
 30
0
 0
VERTEX
  8
CUT
 10
780.074
 20
666.665
 30
0
 0
VERTEX
  8
CUT
 10
789.754
 20
617.757
 30
0
 0
VERTEX
  8
CUT
 10
775.159
 20
619.091
 30
0
 0
VERTEX
  8
CUT
 10
695.034
 20
626.591
 30
0
 0
VERTEX
  8
CUT
 10
637.297
 20
631.869
 30
0
 0
VERTEX
  8
CUT
 10
629.416
 20
632.832
 30
0
 0
VERTEX
  8
CUT
 10
621.529
 20
633.17
 30
0
 0
VERTEX
  8
CUT
 10
619.182
 20
632.863
 30
0
 0
VERTEX
  8
CUT
 10
616.972
 20
632.09
 30
0
 0
VERTEX
  8
CUT
 10
614.869
 20
630.523
 30
0
 0
VERTEX
  8
CUT
 10
613.211
 20
628.481
 30
0
 0
VERTEX
  8
CUT
 10
612.482
 20
626.182
 30
0
 0
VERTEX
  8
CUT
 10
618.095
 20
624.58
 30
0
 0
VERTEX
  8
CUT
 10
616.218
 20
619.418
 30
0
 0
VERTEX
  8
CUT
 10
605.865
 20
594
 30
0
 0
VERTEX
  8
CUT
 10
599.426
 20
578.814
 30
0
 0
VERTEX
  8
CUT
 10
598.707
 20
576.548
 30
0
 0
VERTEX
  8
CUT
 10
575.304
 20
578.913
 30
0
 0
VERTEX
  8
CUT
 10
527.704
 20
582.146
 30
0
 0
VERTEX
  8
CUT
 10
503.917
 20
583.868
 30
0
 0
VERTEX
  8
CUT
 10
480.193
 20
586.203
 30
0
 0
VERTEX
  8
CUT
 10
479.096
 20
586.393
 30
0
 0
VERTEX
  8
CUT
 10
479.5
 20
593.579
 30
0
 0
VERTEX
  8
CUT
 10
479.434
 20
600.686
 30
0
 0
VERTEX
  8
CUT
 10
477.737
 20
609.121
 30
0
 0
VERTEX
  8
CUT
 10
475.217
 20
617.361
 30
0
 0
VERTEX
  8
CUT
 10
470.325
 20
628.606
 30
0
 0
VERTEX
  8
CUT
 10
468.011
 20
633.734
 30
0
 0
VERTEX
  8
CUT
 10
475.243
 20
635.801
 30
0
 0
VERTEX
  8
CUT
 10
473.658
 20
642.238
 30
0
 0
VERTEX
  8
CUT
 10
472.017
 20
645.301
 30
0
 0
VERTEX
  8
CUT
 10
469.85
 20
648.006
 30
0
 0
VERTEX
  8
CUT
 10
466.878
 20
650.404
 30
0
 0
VERTEX
  8
CUT
 10
463.482
 20
652.123
 30
0
 0
VERTEX
  8
CUT
 10
460.297
 20
652.863
 30
0
 0
VERTEX
  8
CUT
 10
457.041
 20
653.279
 30
0
 0
VERTEX
  8
CUT
 10
450.422
 20
653.635
 30
0
 0
VERTEX
  8
CUT
 10
418.136
 20
655.715
 30
0
 0
VERTEX
  8
CUT
 10
410.003
 20
656.106
 30
0
 0
VERTEX
  8
CUT
 10
314.384
 20
662.375
 30
0
 0
VERTEX
  8
CUT
 10
218.758
 20
668.895
 30
0
 0
VERTEX
  8
CUT
 10
203.942
 20
670.229
 30
0
 0
VERTEX
  8
CUT
 10
189.108
 20
671.008
 30
0
 0
VERTEX
  8
CUT
 10
185.74
 20
670.912
 30
0
 0
VERTEX
  8
CUT
 10
182.416
 20
670.442
 30
0
 0
VERTEX
  8
CUT
 10
177.531
 20
668.463
 30
0
 0
VERTEX
  8
CUT
 10
137.366
 20
714.735
 30
0
 0
VERTEX
  8
CUT
 10
70.3353
 20
790.607
 30
0
 0
VERTEX
  8
CUT
 10
47.0358
 20
816.901
 30
0
 0
VERTEX
  8
CUT
 10
25.5499
 20
841.702
 30
0
 0
VERTEX
  8
CUT
 10
16.9926
 20
851.872
 30
0
 0
VERTEX
  8
CUT
 10
8.87985
 20
862.385
 30
0
 0
VERTEX
  8
CUT
 10
4.59234
 20
868.788
 30
0
 0
VERTEX
  8
CUT
 10
0.957574
 20
875.558
 30
0
 0
VERTEX
  8
CUT
 10
0
 20
878.89
 30
0
  0
SEQEND
  0
TEXT
  8
ANNOTATION
 10
194.338
 20
810.963
 30
0
 40
6.99771
  1
Daimler
 50
0
 41
1
 71
0
 72
0
 73
0
  0
TEXT
  8
ANNOTATION
 10
194.338
 20
574.032
 30
0
 40
6.99771
  1
X204
 50
0
 41
1
 71
0
 72
0
 73
0
  0
TEXT
  8
ANNOTATION
 10
194.338
 20
337.102
 30
0
 40
6.99771
  1
TMF hinten Schaum
 50
0
 41
1
 71
0
 72
0
 73
0
  0
TEXT
  8
ANNOTATION
 10
194.338
 20
100.171
 30
0
 40
6.99771
  1
14814  St.02
 50
0
 41
1
 71
0
 72
0
 73
0
  0
TEXT
  8
ANNOTATION
 10
331.844
 20
742.583
 30
0
 40
6.99771
  1
TV-TMF-H-LL-01-02S
 50
0
 41
1
 71
0
 72
0
 73
0
 0
ENDBLK
 0
BLOCK
  8
LAYER0
  2
BLOCK2
 70
64
 10
0
 20
0
 30
0
  3
BLOCK2
  0
POINT
  8
D
 10
932.357
 20
889.304
 30
0
  0
POINT
  8
D
 10
865.977
 20
966.871
 30
0
  0
POINT
  8
D
 10
803.495
 20
1065.55
 30
0
  0
POINT
  8
D
 10
912.106
 20
1074.86
 30
0
  0
POINT
  8
D
 10
1013.76
 20
1076.9
 30
0
  0
POINT
  8
D
 10
1114.37
 20
1076.18
 30
0
  0
POINT
  8
D
 10
1178.67
 20
996.591
 30
0
 0
LINE
  8
F
 10
1181.34
 20
985.613
 30
0
 11
1186.92
 21
992.675
 31
0
 0
LINE
  8
F
 10
1194.74
 20
975.766
 30
0
 11
1198.52
 21
983.912
 31
0
 0
LINE
  8
F
 10
1198.75
 20
973.934
 30
0
 11
1202.17
 21
982.108
 31
0
  0
POINT
  8
D
 10
1270.62
 20
972.629
 30
0
  0
POINT
  8
D
 10
1368.86
 20
967.605
 30
0
 0
LINE
  8
F
 10
1392.28
 20
960.01
 30
0
 11
1389.09
 21
968.425
 31
0
 0
LINE
  8
F
 10
1397.87
 20
965.652
 30
0
 11
1389.82
 21
969.672
 31
0
 0
LINE
  8
F
 10
1399.06
 20
968.476
 30
0
 11
1390.81
 21
972.085
 31
0
  0
POINT
  8
D
 10
1433.61
 20
1080.23
 30
0
  0
POINT
  8
D
 10
1584.29
 20
942.36
 30
0
  0
POINT
  8
D
 10
1607.72
 20
769.688
 30
0
  0
POINT
  8
D
 10
1514.39
 20
777.795
 30
0
 0
LINE
  8
F
 10
1436.09
 20
793.104
 30
0
 11
1436.02
 21
784.105
 31
0
 0
LINE
  8
F
 10
1429.6
 20
791.267
 30
0
 11
1434.29
 21
783.592
 31
0
 0
LINE
  8
F
 10
1425.07
 20
786.159
 30
0
 11
1432.94
 21
781.788
 31
0
  0
POINT
  8
D
 10
1394.09
 20
731.834
 30
0
  0
POINT
  8
D
 10
1311.3
 20
739.126
 30
0
  0
POINT
  8
D
 10
1297.31
 20
741.511
 30
0
  0
POINT
  8
D
 10
1229.37
 20
812.296
 30
0
  0
POINT
  8
D
 10
1132.76
 20
819.957
 30
0
  0
POINT
  8
D
 10
1050.67
 20
827.188
 30
0
 0
LINE
  8
F
 10
1278.05
 20
807.026
 30
0
 11
1269.45
 21
804.348
 31
0
 0
LINE
  8
F
 10
1274.17
 20
813.5
 30
0
 11
1268.03
 21
806.921
 31
0
 0
LINE
  8
F
 10
1267.1
 20
817.198
 30
0
 11
1265.13
 21
808.415
 31
0
 0
LINE
  8
Z
 10
925.611
 20
1076.51
 30
0
 11
873.073
 21
955.804
 31
0
 0
LINE
  8
Z
 10
932.662
 20
1076.67
 30
0
 11
877.336
 21
950.917
 31
0
 0
LINE
  8
Z
 10
1026.76
 20
1078.78
 30
0
 11
939.782
 21
879.477
 31
0
 0
LINE
  8
Z
 10
1034.46
 20
1078.98
 30
0
 11
943.526
 21
873.122
 31
0
 0
LINE
  8
Z
 10
1119.45
 20
1059.24
 30
0
 11
1017.76
 21
828.928
 31
0
 0
LINE
  8
Z
 10
1123.38
 20
1053.77
 30
0
 11
1024.05
 21
828.285
 31
0
 0
LINE
  8
Z
 10
1189.47
 20
990.635
 30
0
 11
1114.41
 21
820.452
 31
0
 0
LINE
  8
Z
 10
1194.24
 20
986.921
 30
0
 11
1120.62
 21
819.936
 31
0
 0
LINE
  8
Z
 10
1282.57
 20
973.929
 30
0
 11
1211.13
 21
812.222
 31
0
 0
LINE
  8
Z
 10
1289.11
 20
973.569
 30
0
 11
1217.45
 21
811.681
 31
0
 0
LINE
  8
Z
 10
1380.35
 20
968.39
 30
0
 11
1281
 21
743.114
 31
0
 0
LINE
  8
Z
 10
1386.65
 20
968.118
 30
0
 11
1285.93
 21
739.804
 31
0
 0
LINE
  8
Z
 10
1533.5
 20
1088.51
 30
0
 11
1376.26
 21
731.463
 31
0
 0
LINE
  8
Z
 10
1540
 20
1088.68
 30
0
 11
1382.68
 21
730.833
 31
0
 0
LINE
  8
Z
 10
1580.84
 20
972.619
 30
0
 11
1496.75
 21
776.734
 31
0
 0
LINE
  8
Z
 10
1582.67
 20
961.646
 30
0
 11
1503.02
 21
776.073
 31
0
  0
POINT
  8
D
 10
1009.2
 20
832.791
 30
0
  0
POINT
  8
D
 10
1556.56
 20
1084.57
 30
0
 0
POLYLINE
  8
CUT
  66
     1
 10
0
 20
0
 30
0
 0
VERTEX
  8
CUT
 10
1293.78
 20
738.783
 30
0
 0
VERTEX
  8
CUT
 10
1290.97
 20
739.014
 30
0
 0
VERTEX
  8
CUT
 10
1287.39
 20
739.39
 30
0
 0
VERTEX
  8
CUT
 10
1284.01
 20
740.353
 30
0
 0
VERTEX
  8
CUT
 10
1281.81
 20
741.994
 30
0
 0
VERTEX
  8
CUT
 10
1280.22
 20
744.204
 30
0
 0
VERTEX
  8
CUT
 10
1279.74
 20
746.302
 30
0
 0
VERTEX
  8
CUT
 10
1279.72
 20
748.501
 30
0
 0
VERTEX
  8
CUT
 10
1282.04
 20
770.005
 30
0
 0
VERTEX
  8
CUT
 10
1282.23
 20
773.975
 30
0
 0
VERTEX
  8
CUT
 10
1281.84
 20
777.882
 30
0
 0
VERTEX
  8
CUT
 10
1280.18
 20
781.918
 30
0
 0
VERTEX
  8
CUT
 10
1278.07
 20
785.779
 30
0
 0
VERTEX
  8
CUT
 10
1273.53
 20
793.391
 30
0
 0
VERTEX
  8
CUT
 10
1272.35
 20
796.109
 30
0
 0
VERTEX
  8
CUT
 10
1271.7
 20
797.412
 30
0
 0
VERTEX
  8
CUT
 10
1270.27
 20
801.303
 30
0
 0
VERTEX
  8
CUT
 10
1268.79
 20
804.663
 30
0
 0
VERTEX
  8
CUT
 10
1268.2
 20
805.794
 30
0
 0
VERTEX
  8
CUT
 10
1267.24
 20
806.817
 30
0
 0
VERTEX
  8
CUT
 10
1266.42
 20
807.216
 30
0
 0
VERTEX
  8
CUT
 10
1265.09
 20
807.597
 30
0
 0
VERTEX
  8
CUT
 10
1263.74
 20
807.841
 30
0
 0
VERTEX
  8
CUT
 10
1261.84
 20
808.059
 30
0
 0
VERTEX
  8
CUT
 10
1234.29
 20
810.102
 30
0
 0
VERTEX
  8
CUT
 10
1234.01
 20
809.708
 30
0
 0
VERTEX
  8
CUT
 10
1232.63
 20
808.651
 30
0
 0
VERTEX
  8
CUT
 10
1231.05
 20
808.001
 30
0
 0
VERTEX
  8
CUT
 10
1229.37
 20
807.778
 30
0
 0
VERTEX
  8
CUT
 10
1227.68
 20
808.001
 30
0
 0
VERTEX
  8
CUT
 10
1226.11
 20
808.651
 30
0
 0
VERTEX
  8
CUT
 10
1224.76
 20
809.685
 30
0
 0
VERTEX
  8
CUT
 10
1223.73
 20
811.036
 30
0
 0
VERTEX
  8
CUT
 10
1223.15
 20
811.191
 30
0
 0
VERTEX
  8
CUT
 10
1143.39
 20
818.042
 30
0
 0
VERTEX
  8
CUT
 10
1138.3
 20
818.466
 30
0
 0
VERTEX
  8
CUT
 10
1137.37
 20
817.348
 30
0
 0
VERTEX
  8
CUT
 10
1136.01
 20
816.314
 30
0
 0
VERTEX
  8
CUT
 10
1134.44
 20
815.662
 30
0
 0
VERTEX
  8
CUT
 10
1132.76
 20
815.441
 30
0
 0
VERTEX
  8
CUT
 10
1131.07
 20
815.662
 30
0
 0
VERTEX
  8
CUT
 10
1129.5
 20
816.314
 30
0
 0
VERTEX
  8
CUT
 10
1128.15
 20
817.348
 30
0
 0
VERTEX
  8
CUT
 10
1127.11
 20
818.7
 30
0
 0
VERTEX
  8
CUT
 10
1126.58
 20
819.441
 30
0
 0
VERTEX
  8
CUT
 10
1056.05
 20
825.301
 30
0
 0
VERTEX
  8
CUT
 10
1055.28
 20
824.577
 30
0
 0
VERTEX
  8
CUT
 10
1053.93
 20
823.543
 30
0
 0
VERTEX
  8
CUT
 10
1052.36
 20
822.893
 30
0
 0
VERTEX
  8
CUT
 10
1050.67
 20
822.67
 30
0
 0
VERTEX
  8
CUT
 10
1048.98
 20
822.893
 30
0
 0
VERTEX
  8
CUT
 10
1047.41
 20
823.543
 30
0
 0
VERTEX
  8
CUT
 10
1046.06
 20
824.577
 30
0
 0
VERTEX
  8
CUT
 10
1045.01
 20
825.949
 30
0
 0
VERTEX
  8
CUT
 10
1044.9
 20
826.228
 30
0
 0
VERTEX
  8
CUT
 10
1043.93
 20
826.307
 30
0
 0
VERTEX
  8
CUT
 10
1024.46
 20
828.242
 30
0
 0
VERTEX
  8
CUT
 10
1012.23
 20
829.495
 30
0
 0
VERTEX
  8
CUT
 10
1011.45
 20
828.895
 30
0
 0
VERTEX
  8
CUT
 10
1010.37
 20
828.445
 30
0
 0
VERTEX
  8
CUT
 10
1009.2
 20
828.291
 30
0
 0
VERTEX
  8
CUT
 10
1008.04
 20
828.445
 30
0
 0
VERTEX
  8
CUT
 10
1006.95
 20
828.895
 30
0
 0
VERTEX
  8
CUT
 10
1006.02
 20
829.609
 30
0
 0
VERTEX
  8
CUT
 10
1005.59
 20
830.168
 30
0
 0
VERTEX
  8
CUT
 10
1003.73
 20
830.444
 30
0
 0
VERTEX
  8
CUT
 10
1000.95
 20
830.775
 30
0
 0
VERTEX
  8
CUT
 10
998.735
 20
830.785
 30
0
 0
VERTEX
  8
CUT
 10
997.201
 20
830.378
 30
0
 0
VERTEX
  8
CUT
 10
993.978
 20
829.35
 30
0
 0
VERTEX
  8
CUT
 10
990.132
 20
827.704
 30
0
 0
VERTEX
  8
CUT
 10
985.334
 20
826.03
 30
0
 0
VERTEX
  8
CUT
 10
983.863
 20
827.374
 30
0
 0
VERTEX
  8
CUT
 10
981.654
 20
829.677
 30
0
 0
VERTEX
  8
CUT
 10
979.121
 20
832.619
 30
0
 0
VERTEX
  8
CUT
 10
963.218
 20
850.498
 30
0
 0
VERTEX
  8
CUT
 10
933.721
 20
884.387
 30
0
 0
VERTEX
  8
CUT
 10
933.419
 20
884.343
 30
0
 0
VERTEX
  8
CUT
 10
931.854
 20
884.544
 30
0
 0
VERTEX
  8
CUT
 10
930.404
 20
885.138
 30
0
 0
VERTEX
  8
CUT
 10
929.147
 20
886.088
 30
0
 0
VERTEX
  8
CUT
 10
928.181
 20
887.341
 30
0
 0
VERTEX
  8
CUT
 10
927.572
 20
888.796
 30
0
 0
VERTEX
  8
CUT
 10
927.356
 20
890.363
 30
0
 0
VERTEX
  8
CUT
 10
927.483
 20
891.763
 30
0
 0
VERTEX
  8
CUT
 10
880.175
 20
947.663
 30
0
 0
VERTEX
  8
CUT
 10
867.866
 20
961.77
 30
0
 0
VERTEX
  8
CUT
 10
867.602
 20
961.722
 30
0
 0
VERTEX
  8
CUT
 10
865.839
 20
961.941
 30
0
 0
VERTEX
  8
CUT
 10
864.199
 20
962.604
 30
0
 0
VERTEX
  8
CUT
 10
862.781
 20
963.675
 30
0
 0
VERTEX
  8
CUT
 10
861.687
 20
965.083
 30
0
 0
VERTEX
  8
CUT
 10
860.991
 20
966.726
 30
0
 0
VERTEX
  8
CUT
 10
860.742
 20
968.496
 30
0
 0
VERTEX
  8
CUT
 10
860.803
 20
969.906
 30
0
 0
VERTEX
  8
CUT
 10
843.739
 20
989.175
 30
0
 0
VERTEX
  8
CUT
 10
826.95
 20
1008.68
 30
0
 0
VERTEX
  8
CUT
 10
816.101
 20
1021.64
 30
0
 0
VERTEX
  8
CUT
 10
810.991
 20
1028.35
 30
0
 0
VERTEX
  8
CUT
 10
806.279
 20
1035.32
 30
0
 0
VERTEX
  8
CUT
 10
802.515
 20
1042.86
 30
0
 0
VERTEX
  8
CUT
 10
799.51
 20
1050.75
 30
0
 0
VERTEX
  8
CUT
 10
798.004
 20
1055.84
 30
0
 0
VERTEX
  8
CUT
 10
796.848
 20
1061.02
 30
0
 0
VERTEX
  8
CUT
 10
796.49
 20
1063.71
 30
0
 0
VERTEX
  8
CUT
 10
796.104
 20
1067.69
 30
0
 0
VERTEX
  8
CUT
 10
796.147
 20
1069.45
 30
0
 0
VERTEX
  8
CUT
 10
796.637
 20
1070.85
 30
0
 0
VERTEX
  8
CUT
 10
797.521
 20
1072.08
 30
0
 0
VERTEX
  8
CUT
 10
798.867
 20
1072.9
 30
0
 0
VERTEX
  8
CUT
 10
800.376
 20
1073.4
 30
0
 0
VERTEX
  8
CUT
 10
802.642
 20
1073.84
 30
0
 0
VERTEX
  8
CUT
 10
806.177
 20
1074.11
 30
0
 0
VERTEX
  8
CUT
 10
810.767
 20
1074.32
 30
0
 0
VERTEX
  8
CUT
 10
820.285
 20
1074.41
 30
0
 0
VERTEX
  8
CUT
 10
868.06
 20
1075.38
 30
0
 0
VERTEX
  8
CUT
 10
907.811
 20
1076.15
 30
0
 0
VERTEX
  8
CUT
 10
908.209
 20
1077.11
 30
0
 0
VERTEX
  8
CUT
 10
908.923
 20
1078.05
 30
0
 0
VERTEX
  8
CUT
 10
909.855
 20
1078.76
 30
0
 0
VERTEX
  8
CUT
 10
910.94
 20
1079.21
 30
0
 0
VERTEX
  8
CUT
 10
912.106
 20
1079.36
 30
0
 0
VERTEX
  8
CUT
 10
913.269
 20
1079.21
 30
0
 0
VERTEX
  8
CUT
 10
914.356
 20
1078.76
 30
0
 0
VERTEX
  8
CUT
 10
915.288
 20
1078.05
 30
0
 0
VERTEX
  8
CUT
 10
916.002
 20
1077.11
 30
0
 0
VERTEX
  8
CUT
 10
916.332
 20
1076.32
 30
0
 0
VERTEX
  8
CUT
 10
921.43
 20
1076.42
 30
0
 0
VERTEX
  8
CUT
 10
1009.53
 20
1078.36
 30
0
 0
VERTEX
  8
CUT
 10
1009.86
 20
1079.15
 30
0
 0
VERTEX
  8
CUT
 10
1010.57
 20
1080.09
 30
0
 0
VERTEX
  8
CUT
 10
1011.5
 20
1080.8
 30
0
 0
VERTEX
  8
CUT
 10
1012.59
 20
1081.25
 30
0
 0
VERTEX
  8
CUT
 10
1013.76
 20
1081.4
 30
0
 0
VERTEX
  8
CUT
 10
1014.92
 20
1081.25
 30
0
 0
VERTEX
  8
CUT
 10
1016.01
 20
1080.8
 30
0
 0
VERTEX
  8
CUT
 10
1016.94
 20
1080.09
 30
0
 0
VERTEX
  8
CUT
 10
1017.65
 20
1079.15
 30
0
 0
VERTEX
  8
CUT
 10
1017.9
 20
1078.56
 30
0
 0
VERTEX
  8
CUT
 10
1069.56
 20
1079.86
 30
0
 0
VERTEX
  8
CUT
 10
1103.93
 20
1080.52
 30
0
 0
VERTEX
  8
CUT
 10
1111.57
 20
1080.69
 30
0
 0
VERTEX
  8
CUT
 10
1113.28
 20
1080.73
 30
0
 0
VERTEX
  8
CUT
 10
1114.94
 20
1080.66
 30
0
 0
VERTEX
  8
CUT
 10
1116.35
 20
1080.27
 30
0
 0
VERTEX
  8
CUT
 10
1117.54
 20
1079.44
 30
0
 0
VERTEX
  8
CUT
 10
1118.49
 20
1078.36
 30
0
 0
VERTEX
  8
CUT
 10
1118.95
 20
1077.04
 30
0
 0
VERTEX
  8
CUT
 10
1119.02
 20
1075.73
 30
0
 0
VERTEX
  8
CUT
 10
1118.64
 20
1070.86
 30
0
 0
VERTEX
  8
CUT
 10
1118.36
 20
1067.41
 30
0
 0
VERTEX
  8
CUT
 10
1118.06
 20
1063.83
 30
0
 0
VERTEX
  8
CUT
 10
1118.25
 20
1062.03
 30
0
 0
VERTEX
  8
CUT
 10
1118.77
 20
1060.31
 30
0
 0
VERTEX
  8
CUT
 10
1121.16
 20
1056.53
 30
0
 0
VERTEX
  8
CUT
 10
1123.98
 20
1053.03
 30
0
 0
VERTEX
  8
CUT
 10
1130.25
 20
1046.47
 30
0
 0
VERTEX
  8
CUT
 10
1147.08
 20
1029.08
 30
0
 0
VERTEX
  8
CUT
 10
1164.53
 20
1012.32
 30
0
 0
VERTEX
  8
CUT
 10
1177.37
 20
1000.88
 30
0
 0
VERTEX
  8
CUT
 10
1177.5
 20
1000.94
 30
0
 0
VERTEX
  8
CUT
 10
1178.67
 20
1001.09
 30
0
 0
VERTEX
  8
CUT
 10
1179.83
 20
1000.94
 30
0
 0
VERTEX
  8
CUT
 10
1180.92
 20
1000.49
 30
0
 0
VERTEX
  8
CUT
 10
1181.85
 20
999.774
 30
0
 0
VERTEX
  8
CUT
 10
1182.57
 20
998.842
 30
0
 0
VERTEX
  8
CUT
 10
1183.02
 20
997.757
 30
0
 0
VERTEX
  8
CUT
 10
1183.17
 20
996.591
 30
0
 0
VERTEX
  8
CUT
 10
1183.06
 20
995.791
 30
0
 0
VERTEX
  8
CUT
 10
1183.57
 20
995.349
 30
0
 0
VERTEX
  8
CUT
 10
1193.11
 20
987.716
 30
0
 0
VERTEX
  8
CUT
 10
1198.75
 20
983.757
 30
0
 0
VERTEX
  8
CUT
 10
1202.2
 20
982.088
 30
0
 0
VERTEX
  8
CUT
 10
1205.8
 20
980.716
 30
0
 0
VERTEX
  8
CUT
 10
1213.8
 20
978.517
 30
0
 0
VERTEX
  8
CUT
 10
1220.55
 20
977.577
 30
0
 0
VERTEX
  8
CUT
 10
1227.35
 20
977.003
 30
0
 0
VERTEX
  8
CUT
 10
1239.37
 20
976.429
 30
0
 0
VERTEX
  8
CUT
 10
1266.67
 20
974.803
 30
0
 0
VERTEX
  8
CUT
 10
1267.44
 20
975.814
 30
0
 0
VERTEX
  8
CUT
 10
1268.37
 20
976.528
 30
0
 0
VERTEX
  8
CUT
 10
1269.46
 20
976.977
 30
0
 0
VERTEX
  8
CUT
 10
1270.62
 20
977.132
 30
0
 0
VERTEX
  8
CUT
 10
1271.79
 20
976.977
 30
0
 0
VERTEX
  8
CUT
 10
1272.87
 20
976.528
 30
0
 0
VERTEX
  8
CUT
 10
1273.8
 20
975.814
 30
0
 0
VERTEX
  8
CUT
 10
1274.52
 20
974.882
 30
0
 0
VERTEX
  8
CUT
 10
1274.72
 20
974.384
 30
0
 0
VERTEX
  8
CUT
 10
1287.87
 20
973.625
 30
0
 0
VERTEX
  8
CUT
 10
1344.5
 20
971.036
 30
0
 0
VERTEX
  8
CUT
 10
1364.84
 20
969.535
 30
0
 0
VERTEX
  8
CUT
 10
1364.97
 20
969.855
 30
0
 0
VERTEX
  8
CUT
 10
1365.68
 20
970.787
 30
0
 0
VERTEX
  8
CUT
 10
1366.61
 20
971.501
 30
0
 0
VERTEX
  8
CUT
 10
1367.7
 20
971.951
 30
0
 0
VERTEX
  8
CUT
 10
1368.86
 20
972.106
 30
0
 0
VERTEX
  8
CUT
 10
1370.03
 20
971.951
 30
0
 0
VERTEX
  8
CUT
 10
1371.12
 20
971.501
 30
0
 0
VERTEX
  8
CUT
 10
1372.05
 20
970.787
 30
0
 0
VERTEX
  8
CUT
 10
1372.76
 20
969.855
 30
0
 0
VERTEX
  8
CUT
 10
1373.15
 20
968.923
 30
0
 0
VERTEX
  8
CUT
 10
1381.29
 20
968.321
 30
0
 0
VERTEX
  8
CUT
 10
1384.65
 20
968.153
 30
0
 0
VERTEX
  8
CUT
 10
1387.97
 20
968.092
 30
0
 0
VERTEX
  8
CUT
 10
1388.93
 20
968.252
 30
0
 0
VERTEX
  8
CUT
 10
1389.43
 20
968.793
 30
0
 0
VERTEX
  8
CUT
 10
1390.19
 20
970.495
 30
0
 0
VERTEX
  8
CUT
 10
1390.86
 20
972.2
 30
0
 0
VERTEX
  8
CUT
 10
1400.58
 20
995.636
 30
0
 0
VERTEX
  8
CUT
 10
1410.01
 20
1018.73
 30
0
 0
VERTEX
  8
CUT
 10
1419.03
 20
1041.99
 30
0
 0
VERTEX
  8
CUT
 10
1423.77
 20
1054.56
 30
0
 0
VERTEX
  8
CUT
 10
1425.87
 20
1060.92
 30
0
 0
VERTEX
  8
CUT
 10
1427.49
 20
1067.41
 30
0
 0
VERTEX
  8
CUT
 10
1427.99
 20
1076.34
 30
0
 0
VERTEX
  8
CUT
 10
1428.27
 20
1079.77
 30
0
 0
VERTEX
  8
CUT
 10
1429.13
 20
1083.02
 30
0
 0
VERTEX
  8
CUT
 10
1430.06
 20
1084.25
 30
0
 0
VERTEX
  8
CUT
 10
1431.3
 20
1085.18
 30
0
 0
VERTEX
  8
CUT
 10
1433.36
 20
1085.87
 30
0
 0
VERTEX
  8
CUT
 10
1435.56
 20
1086.19
 30
0
 0
VERTEX
  8
CUT
 10
1441.37
 20
1086.68
 30
0
 0
VERTEX
  8
CUT
 10
1447.21
 20
1086.84
 30
0
 0
VERTEX
  8
CUT
 10
1476.98
 20
1087.05
 30
0
 0
VERTEX
  8
CUT
 10
1516.19
 20
1088.05
 30
0
 0
VERTEX
  8
CUT
 10
1523.3
 20
1088.24
 30
0
 0
VERTEX
  8
CUT
 10
1549.13
 20
1088.92
 30
0
 0
VERTEX
  8
CUT
 10
1558.16
 20
1088.95
 30
0
 0
VERTEX
  8
CUT
 10
1559.07
 20
1088.73
 30
0
 0
VERTEX
  8
CUT
 10
1560.06
 20
1087.77
 30
0
 0
VERTEX
  8
CUT
 10
1560.73
 20
1086.28
 30
0
 0
VERTEX
  8
CUT
 10
1562.92
 20
1076.37
 30
0
 0
VERTEX
  8
CUT
 10
1566.04
 20
1060.38
 30
0
 0
VERTEX
  8
CUT
 10
1579.56
 20
980.251
 30
0
 0
VERTEX
  8
CUT
 10
1585.17
 20
946.744
 30
0
 0
VERTEX
  8
CUT
 10
1585.45
 20
946.706
 30
0
 0
VERTEX
  8
CUT
 10
1586.54
 20
946.256
 30
0
 0
VERTEX
  8
CUT
 10
1587.47
 20
945.542
 30
0
 0
VERTEX
  8
CUT
 10
1588.18
 20
944.61
 30
0
 0
VERTEX
  8
CUT
 10
1588.63
 20
943.525
 30
0
 0
VERTEX
  8
CUT
 10
1588.79
 20
942.36
 30
0
 0
VERTEX
  8
CUT
 10
1588.63
 20
941.196
 30
0
 0
VERTEX
  8
CUT
 10
1588.18
 20
940.107
 30
0
 0
VERTEX
  8
CUT
 10
1587.47
 20
939.177
 30
0
 0
VERTEX
  8
CUT
 10
1586.55
 20
938.476
 30
0
 0
VERTEX
  8
CUT
 10
1599.34
 20
862.068
 30
0
 0
VERTEX
  8
CUT
 10
1612.69
 20
784.984
 30
0
 0
VERTEX
  8
CUT
 10
1614.66
 20
772.885
 30
0
 0
VERTEX
  8
CUT
 10
1614.97
 20
769.937
 30
0
 0
VERTEX
  8
CUT
 10
1614.74
 20
767.038
 30
0
 0
VERTEX
  8
CUT
 10
1613.92
 20
765.298
 30
0
 0
VERTEX
  8
CUT
 10
1612.63
 20
763.863
 30
0
 0
VERTEX
  8
CUT
 10
1610.88
 20
762.878
 30
0
 0
VERTEX
  8
CUT
 10
1608.91
 20
762.377
 30
0
 0
VERTEX
  8
CUT
 10
1605.06
 20
762.545
 30
0
 0
VERTEX
  8
CUT
 10
1601.22
 20
763.205
 30
0
 0
VERTEX
  8
CUT
 10
1570.72
 20
767.922
 30
0
 0
VERTEX
  8
CUT
 10
1540.16
 20
772.154
 30
0
 0
VERTEX
  8
CUT
 10
1517.5
 20
774.557
 30
0
 0
VERTEX
  8
CUT
 10
1516.64
 20
773.899
 30
0
 0
VERTEX
  8
CUT
 10
1515.55
 20
773.449
 30
0
 0
VERTEX
  8
CUT
 10
1514.39
 20
773.294
 30
0
 0
VERTEX
  8
CUT
 10
1513.22
 20
773.449
 30
0
 0
VERTEX
  8
CUT
 10
1512.14
 20
773.899
 30
0
 0
VERTEX
  8
CUT
 10
1511.21
 20
774.613
 30
0
 0
VERTEX
  8
CUT
 10
1510.73
 20
775.258
 30
0
 0
VERTEX
  8
CUT
 10
1488.04
 20
777.651
 30
0
 0
VERTEX
  8
CUT
 10
1486.94
 20
777.767
 30
0
 0
VERTEX
  8
CUT
 10
1474.63
 20
779.065
 30
0
 0
VERTEX
  8
CUT
 10
1450.59
 20
782.522
 30
0
 0
VERTEX
  8
CUT
 10
1437.63
 20
783.99
 30
0
 0
VERTEX
  8
CUT
 10
1435.98
 20
784.107
 30
0
 0
VERTEX
  8
CUT
 10
1434.49
 20
783.757
 30
0
 0
VERTEX
  8
CUT
 10
1433.69
 20
783.068
 30
0
 0
VERTEX
  8
CUT
 10
1432.57
 20
781.166
 30
0
 0
VERTEX
  8
CUT
 10
1427.54
 20
770.5
 30
0
 0
VERTEX
  8
CUT
 10
1412.45
 20
736.556
 30
0
 0
VERTEX
  8
CUT
 10
1410.44
 20
732.553
 30
0
 0
VERTEX
  8
CUT
 10
1409.37
 20
730.96
 30
0
 0
VERTEX
  8
CUT
 10
1408.01
 20
729.685
 30
0
 0
VERTEX
  8
CUT
 10
1405.57
 20
729.007
 30
0
 0
VERTEX
  8
CUT
 10
1402.97
 20
728.887
 30
0
 0
VERTEX
  8
CUT
 10
1397.73
 20
729.243
 30
0
 0
VERTEX
  8
CUT
 10
1397.28
 20
728.651
 30
0
 0
VERTEX
  8
CUT
 10
1396.34
 20
727.937
 30
0
 0
VERTEX
  8
CUT
 10
1395.26
 20
727.488
 30
0
 0
VERTEX
  8
CUT
 10
1394.09
 20
727.333
 30
0
 0
VERTEX
  8
CUT
 10
1392.93
 20
727.488
 30
0
 0
VERTEX
  8
CUT
 10
1391.84
 20
727.937
 30
0
 0
VERTEX
  8
CUT
 10
1390.91
 20
728.651
 30
0
 0
VERTEX
  8
CUT
 10
1390.2
 20
729.583
 30
0
 0
VERTEX
  8
CUT
 10
1390.01
 20
730.025
 30
0
 0
VERTEX
  8
CUT
 10
1381.53
 20
730.96
 30
0
 0
VERTEX
  8
CUT
 10
1350.01
 20
733.978
 30
0
 0
VERTEX
  8
CUT
 10
1315.25
 20
737.005
 30
0
 0
VERTEX
  8
CUT
 10
1315.19
 20
736.876
 30
0
 0
VERTEX
  8
CUT
 10
1314.48
 20
735.944
 30
0
 0
VERTEX
  8
CUT
 10
1313.55
 20
735.23
 30
0
 0
VERTEX
  8
CUT
 10
1312.46
 20
734.78
 30
0
 0
VERTEX
  8
CUT
 10
1311.3
 20
734.625
 30
0
 0
VERTEX
  8
CUT
 10
1310.13
 20
734.78
 30
0
 0
VERTEX
  8
CUT
 10
1309.05
 20
735.23
 30
0
 0
VERTEX
  8
CUT
 10
1308.12
 20
735.944
 30
0
 0
VERTEX
  8
CUT
 10
1307.4
 20
736.876
 30
0
 0
VERTEX
  8
CUT
 10
1307.06
 20
737.701
 30
0
 0
VERTEX
  8
CUT
 10
1300.39
 20
738.245
 30
0
 0
VERTEX
  8
CUT
 10
1299.56
 20
737.615
 30
0
 0
VERTEX
  8
CUT
 10
1298.48
 20
737.165
 30
0
 0
VERTEX
  8
CUT
 10
1297.31
 20
737.01
 30
0
 0
VERTEX
  8
CUT
 10
1296.15
 20
737.165
 30
0
 0
VERTEX
  8
CUT
 10
1295.06
 20
737.615
 30
0
 0
VERTEX
  8
CUT
 10
1294.13
 20
738.329
 30
0
 0
VERTEX
  8
CUT
 10
1293.78
 20
738.783
 30
0
  0
SEQEND
  0
TEXT
  8
ANNOTATION
 10
929.182
 20
886.129
 30
0
 40
6.35001
  1

 50
0
 41
1
 71
0
 72
0
 73
0
  0
TEXT
  8
ANNOTATION
 10
862.802
 20
963.696
 30
0
 40
6.35001
  1

 50
0
 41
1
 71
0
 72
0
 73
0
  0
TEXT
  8
ANNOTATION
 10
800.32
 20
1062.38
 30
0
 40
6.35001
  1

 50
0
 41
1
 71
0
 72
0
 73
0
  0
TEXT
  8
ANNOTATION
 10
908.931
 20
1071.69
 30
0
 40
6.35001
  1

 50
0
 41
1
 71
0
 72
0
 73
0
  0
TEXT
  8
ANNOTATION
 10
1010.58
 20
1073.73
 30
0
 40
6.35001
  1

 50
0
 41
1
 71
0
 72
0
 73
0
  0
TEXT
  8
ANNOTATION
 10
1111.2
 20
1073.01
 30
0
 40
6.35001
  1

 50
0
 41
1
 71
0
 72
0
 73
0
  0
TEXT
  8
ANNOTATION
 10
1175.49
 20
993.416
 30
0
 40
6.35001
  1

 50
0
 41
1
 71
0
 72
0
 73
0
  0
TEXT
  8
ANNOTATION
 10
1267.45
 20
969.454
 30
0
 40
6.35001
  1

 50
0
 41
1
 71
0
 72
0
 73
0
  0
TEXT
  8
ANNOTATION
 10
1365.69
 20
964.43
 30
0
 40
6.35001
  1

 50
0
 41
1
 71
0
 72
0
 73
0
  0
TEXT
  8
ANNOTATION
 10
1430.44
 20
1077.05
 30
0
 40
6.35001
  1

 50
0
 41
1
 71
0
 72
0
 73
0
  0
TEXT
  8
ANNOTATION
 10
1581.11
 20
939.185
 30
0
 40
6.35001
  1

 50
0
 41
1
 71
0
 72
0
 73
0
  0
TEXT
  8
ANNOTATION
 10
1604.54
 20
766.513
 30
0
 40
6.35001
  1

 50
0
 41
1
 71
0
 72
0
 73
0
  0
TEXT
  8
ANNOTATION
 10
1226.2
 20
809.121
 30
0
 40
6.35001
  1

 50
0
 41
1
 71
0
 72
0
 73
0
  0
TEXT
  8
ANNOTATION
 10
1129.58
 20
816.782
 30
0
 40
6.35001
  1

 50
0
 41
1
 71
0
 72
0
 73
0
  0
TEXT
  8
ANNOTATION
 10
1047.5
 20
824.013
 30
0
 40
6.35001
  1

 50
0
 41
1
 71
0
 72
0
 73
0
  0
TEXT
  8
ANNOTATION
 10
1553.38
 20
1081.39
 30
0
 40
6.35001
  1

 50
0
 41
1
 71
0
 72
0
 73
0
  0
TEXT
  8
ANNOTATION
 10
1314.51
 20
738.151
 30
0
 40
2.99975
  1
G
 50
0
 41
1
 71
0
 72
0
 73
0
  0
TEXT
  8
ANNOTATION
 10
1054.17
 20
828.362
 30
0
 40
2.99975
  1
G
 50
0
 41
1
 71
0
 72
0
 73
0
  0
TEXT
  8
ANNOTATION
 10
869.721
 20
966.685
 30
0
 40
2.99975
  1
P
 50
0
 41
1
 71
0
 72
0
 73
0
  0
TEXT
  8
ANNOTATION
 10
935.194
 20
891.275
 30
0
 40
2.99975
  1
P
 50
0
 41
1
 71
0
 72
0
 73
0
  0
TEXT
  8
ANNOTATION
 10
1001.45
 20
834.47
 30
0
 40
2.99975
  1
P
 50
0
 41
1
 71
0
 72
0
 73
0
  0
TEXT
  8
ANNOTATION
 10
1136.97
 20
820.93
 30
0
 40
2.99975
  1
P
 50
0
 41
1
 71
0
 72
0
 73
0
  0
TEXT
  8
ANNOTATION
 10
1235.19
 20
812.939
 30
0
 40
2.99975
  1
P
 50
0
 41
1
 71
0
 72
0
 73
0
  0
TEXT
  8
ANNOTATION
 10
1301.04
 20
740.754
 30
0
 40
2.99975
  1
P
 50
0
 41
1
 71
0
 72
0
 73
0
  0
TEXT
  8
ANNOTATION
 10
1397.66
 20
731.626
 30
0
 40
2.99975
  1
P
 50
0
 41
1
 71
0
 72
0
 73
0
  0
TEXT
  8
ANNOTATION
 10
1517.8
 20
777.061
 30
0
 40
2.99975
  1
P
 50
0
 41
1
 71
0
 72
0
 73
0
  0
TEXT
  8
ANNOTATION
 10
1582.96
 20
937.216
 30
0
 40
2.99975
  1
P
 50
0
 41
1
 71
0
 72
0
 73
0
  0
TEXT
  8
ANNOTATION
 10
1556.46
 20
1079.03
 30
0
 40
2.99975
  1
P
 50
0
 41
1
 71
0
 72
0
 73
0
  0
TEXT
  8
ANNOTATION
 10
1362.93
 20
965.072
 30
0
 40
2.99975
  1
P
 50
0
 41
1
 71
0
 72
0
 73
0
  0
TEXT
  8
ANNOTATION
 10
1265.53
 20
970.066
 30
0
 40
2.99975
  1
P
 50
0
 41
1
 71
0
 72
0
 73
0
  0
TEXT
  8
ANNOTATION
 10
1173.18
 20
995.382
 30
0
 40
2.99975
  1
P
 50
0
 41
1
 71
0
 72
0
 73
0
  0
TEXT
  8
ANNOTATION
 10
1108.19
 20
1075.26
 30
0
 40
2.99975
  1
P
 50
0
 41
1
 71
0
 72
0
 73
0
  0
TEXT
  8
ANNOTATION
 10
1009.05
 20
1073.73
 30
0
 40
2.99975
  1
P
 50
0
 41
1
 71
0
 72
0
 73
0
  0
TEXT
  8
ANNOTATION
 10
906.754
 20
1071.24
 30
0
 40
2.99975
  1
P
 50
0
 41
1
 71
0
 72
0
 73
0
  0
TEXT
  8
ANNOTATION
 10
1159.83
 20
899.456
 30
0
 40
6.99771
  1
Daimler
 50
0
 41
1
 71
0
 72
0
 73
0
  0
TEXT
  8
ANNOTATION
 10
1159.83
 20
662.526
 30
0
 40
6.99771
  1
X204
 50
0
 41
1
 71
0
 72
0
 73
0
  0
TEXT
  8
ANNOTATION
 10
1159.83
 20
425.595
 30
0
 40
6.99771
  1
TMF HL 
 50
0
 41
1
 71
0
 72
0
 73
0
  0
TEXT
  8
ANNOTATION
 10
1159.83
 20
188.665
 30
0
 40
6.99771
  1
14813  St.02
 50
0
 41
1
 71
0
 72
0
 73
0
  0
TEXT
  8
ANNOTATION
 10
1207.96
 20
924.704
 30
0
 40
6.99771
  1
TV-TMF-HL-LL-01-02L
 50
0
 41
1
 71
0
 72
0
 73
0
 0
ENDBLK
 0
BLOCK
  8
LAYER0
  2
BLOCK3
 70
64
 10
0
 20
0
 30
0
  3
BLOCK3
  0
POINT
  8
D
 10
2303.92
 20
161.974
 30
0
  0
POINT
  8
D
 10
2370.3
 20
239.54
 30
0
  0
POINT
  8
D
 10
2432.79
 20
338.222
 30
0
  0
POINT
  8
D
 10
2324.18
 20
347.534
 30
0
  0
POINT
  8
D
 10
2222.52
 20
349.573
 30
0
  0
POINT
  8
D
 10
2121.91
 20
348.854
 30
0
  0
POINT
  8
D
 10
2057.61
 20
269.261
 30
0
 0
LINE
  8
F
 10
2054.95
 20
258.283
 30
0
 11
2049.37
 21
265.344
 31
0
 0
LINE
  8
F
 10
2041.54
 20
248.435
 30
0
 11
2037.76
 21
256.581
 31
0
 0
LINE
  8
F
 10
2037.53
 20
246.604
 30
0
 11
2034.11
 21
254.778
 31
0
  0
POINT
  8
D
 10
1965.66
 20
245.301
 30
0
  0
POINT
  8
D
 10
1867.42
 20
240.274
 30
0
 0
LINE
  8
F
 10
1844
 20
232.68
 30
0
 11
1847.19
 21
241.095
 31
0
 0
LINE
  8
F
 10
1838.41
 20
238.321
 30
0
 11
1846.46
 21
242.342
 31
0
 0
LINE
  8
F
 10
1837.23
 20
241.146
 30
0
 11
1845.47
 21
244.752
 31
0
  0
POINT
  8
D
 10
1802.67
 20
352.898
 30
0
  0
POINT
  8
D
 10
1651.99
 20
215.029
 30
0
  0
POINT
  8
D
 10
1628.56
 20
42.3571
 30
0
  0
POINT
  8
D
 10
1721.89
 20
50.4648
 30
0
 0
LINE
  8
F
 10
1800.19
 20
65.7734
 30
0
 11
1800.26
 21
56.7742
 31
0
 0
LINE
  8
F
 10
1806.69
 20
63.937
 30
0
 11
1801.99
 21
56.2611
 31
0
 0
LINE
  8
F
 10
1811.21
 20
58.8291
 30
0
 11
1803.35
 21
54.4577
 31
0
  0
POINT
  8
D
 10
1842.19
 20
4.50343
 30
0
  0
POINT
  8
D
 10
1924.98
 20
11.7958
 30
0
  0
POINT
  8
D
 10
1938.97
 20
14.1808
 30
0
  0
POINT
  8
D
 10
2006.91
 20
84.9657
 30
0
  0
POINT
  8
D
 10
2103.53
 20
92.6289
 30
0
  0
POINT
  8
D
 10
2185.61
 20
99.8578
 30
0
 0
LINE
  8
F
 10
1958.23
 20
79.6952
 30
0
 11
1966.83
 21
77.018
 31
0
 0
LINE
  8
F
 10
1962.11
 20
86.1697
 30
0
 11
1968.26
 21
79.5911
 31
0
 0
LINE
  8
F
 10
1969.18
 20
89.8679
 30
0
 11
1971.15
 21
81.0846
 31
0
 0
LINE
  8
Z
 10
2310.67
 20
349.18
 30
0
 11
2363.21
 21
228.471
 31
0
 0
LINE
  8
Z
 10
2303.62
 20
349.337
 30
0
 11
2358.95
 21
223.586
 31
0
 0
LINE
  8
Z
 10
2209.52
 20
351.45
 30
0
 11
2296.5
 21
152.146
 31
0
 0
LINE
  8
Z
 10
2201.83
 20
351.646
 30
0
 11
2292.76
 21
145.791
 31
0
 0
LINE
  8
Z
 10
2116.84
 20
331.908
 30
0
 11
2218.52
 21
101.598
 31
0
 0
LINE
  8
Z
 10
2112.9
 20
326.439
 30
0
 11
2212.23
 21
100.958
 31
0
 0
LINE
  8
Z
 10
2046.81
 20
263.305
 30
0
 11
2121.87
 21
93.1217
 31
0
 0
LINE
  8
Z
 10
2042.04
 20
259.591
 30
0
 11
2115.66
 21
92.606
 31
0
 0
LINE
  8
Z
 10
1953.71
 20
246.599
 30
0
 11
2025.15
 21
84.8921
 31
0
 0
LINE
  8
Z
 10
1947.17
 20
246.238
 30
0
 11
2018.83
 21
84.351
 31
0
 0
LINE
  8
Z
 10
1855.93
 20
241.059
 30
0
 11
1955.28
 21
15.7811
 31
0
 0
LINE
  8
Z
 10
1849.63
 20
240.785
 30
0
 11
1950.35
 21
12.474
 31
0
 0
LINE
  8
Z
 10
1702.78
 20
361.179
 30
0
 11
1860.02
 21
4.13259
 31
0
 0
LINE
  8
Z
 10
1696.28
 20
361.349
 30
0
 11
1853.6
 21
3.50267
 31
0
 0
LINE
  8
Z
 10
1655.44
 20
245.288
 30
0
 11
1739.53
 21
49.4006
 31
0
 0
LINE
  8
Z
 10
1653.61
 20
234.315
 30
0
 11
1733.26
 21
48.7402
 31
0
  0
POINT
  8
D
 10
2227.08
 20
105.461
 30
0
  0
POINT
  8
D
 10
1679.72
 20
357.239
 30
0
 0
POLYLINE
  8
CUT
  66
     1
 10
0
 20
0
 30
0
 0
VERTEX
  8
CUT
 10
1942.5
 20
11.4529
 30
0
 0
VERTEX
  8
CUT
 10
1942.15
 20
10.9982
 30
0
 0
VERTEX
  8
CUT
 10
1941.22
 20
10.2845
 30
0
 0
VERTEX
  8
CUT
 10
1940.13
 20
9.8349
 30
0
 0
VERTEX
  8
CUT
 10
1938.97
 20
9.67996
 30
0
 0
VERTEX
  8
CUT
 10
1937.81
 20
9.8349
 30
0
 0
VERTEX
  8
CUT
 10
1936.72
 20
10.2845
 30
0
 0
VERTEX
  8
CUT
 10
1935.9
 20
10.9144
 30
0
 0
VERTEX
  8
CUT
 10
1929.22
 20
10.3708
 30
0
 0
VERTEX
  8
CUT
 10
1928.88
 20
9.54534
 30
0
 0
VERTEX
  8
CUT
 10
1928.16
 20
8.61316
 30
0
 0
VERTEX
  8
CUT
 10
1927.23
 20
7.89942
 30
0
 0
VERTEX
  8
CUT
 10
1926.15
 20
7.44983
 30
0
 0
VERTEX
  8
CUT
 10
1924.98
 20
7.29489
 30
0
 0
VERTEX
  8
CUT
 10
1923.82
 20
7.44983
 30
0
 0
VERTEX
  8
CUT
 10
1922.73
 20
7.89942
 30
0
 0
VERTEX
  8
CUT
 10
1921.8
 20
8.61316
 30
0
 0
VERTEX
  8
CUT
 10
1921.09
 20
9.54534
 30
0
 0
VERTEX
  8
CUT
 10
1921.03
 20
9.67488
 30
0
 0
VERTEX
  8
CUT
 10
1886.27
 20
6.64719
 30
0
 0
VERTEX
  8
CUT
 10
1854.76
 20
3.62967
 30
0
 0
VERTEX
  8
CUT
 10
1846.27
 20
2.69495
 30
0
 0
VERTEX
  8
CUT
 10
1846.08
 20
2.25298
 30
0
 0
VERTEX
  8
CUT
 10
1845.37
 20
1.3208
 30
0
 0
VERTEX
  8
CUT
 10
1844.44
 20
0.607061
 30
0
 0
VERTEX
  8
CUT
 10
1843.35
 20
0.15748
 30
0
 0
VERTEX
  8
CUT
 10
1842.19
 20
0
 30
0
 0
VERTEX
  8
CUT
 10
1841.02
 20
0.15748
 30
0
 0
VERTEX
  8
CUT
 10
1839.94
 20
0.607061
 30
0
 0
VERTEX
  8
CUT
 10
1839
 20
1.3208
 30
0
 0
VERTEX
  8
CUT
 10
1838.55
 20
1.91262
 30
0
 0
VERTEX
  8
CUT
 10
1833.31
 20
1.55702
 30
0
 0
VERTEX
  8
CUT
 10
1830.71
 20
1.6764
 30
0
 0
VERTEX
  8
CUT
 10
1828.27
 20
2.35458
 30
0
 0
VERTEX
  8
CUT
 10
1826.91
 20
3.62967
 30
0
 0
VERTEX
  8
CUT
 10
1825.84
 20
5.22225
 30
0
 0
VERTEX
  8
CUT
 10
1823.83
 20
9.2253
 30
0
 0
VERTEX
  8
CUT
 10
1808.74
 20
43.1699
 30
0
 0
VERTEX
  8
CUT
 10
1803.71
 20
53.8354
 30
0
 0
VERTEX
  8
CUT
 10
1802.59
 20
55.7379
 30
0
 0
VERTEX
  8
CUT
 10
1801.79
 20
56.4237
 30
0
 0
VERTEX
  8
CUT
 10
1800.3
 20
56.7767
 30
0
 0
VERTEX
  8
CUT
 10
1798.65
 20
56.6599
 30
0
 0
VERTEX
  8
CUT
 10
1785.68
 20
55.1918
 30
0
 0
VERTEX
  8
CUT
 10
1761.66
 20
51.7348
 30
0
 0
VERTEX
  8
CUT
 10
1749.34
 20
50.4369
 30
0
 0
VERTEX
  8
CUT
 10
1748.24
 20
50.32
 30
0
 0
VERTEX
  8
CUT
 10
1725.55
 20
47.9274
 30
0
 0
VERTEX
  8
CUT
 10
1725.08
 20
47.2822
 30
0
 0
VERTEX
  8
CUT
 10
1724.14
 20
46.5685
 30
0
 0
VERTEX
  8
CUT
 10
1723.06
 20
46.1189
 30
0
 0
VERTEX
  8
CUT
 10
1721.89
 20
45.9639
 30
0
 0
VERTEX
  8
CUT
 10
1720.73
 20
46.1189
 30
0
 0
VERTEX
  8
CUT
 10
1719.64
 20
46.5685
 30
0
 0
VERTEX
  8
CUT
 10
1718.79
 20
47.2263
 30
0
 0
VERTEX
  8
CUT
 10
1696.13
 20
44.8235
 30
0
 0
VERTEX
  8
CUT
 10
1665.56
 20
40.5918
 30
0
 0
VERTEX
  8
CUT
 10
1635.06
 20
35.875
 30
0
 0
VERTEX
  8
CUT
 10
1631.22
 20
35.2146
 30
0
 0
VERTEX
  8
CUT
 10
1627.38
 20
35.047
 30
0
 0
VERTEX
  8
CUT
 10
1625.41
 20
35.5474
 30
0
 0
VERTEX
  8
CUT
 10
1623.64
 20
36.5329
 30
0
 0
VERTEX
  8
CUT
 10
1622.36
 20
37.9655
 30
0
 0
VERTEX
  8
CUT
 10
1621.54
 20
39.7079
 30
0
 0
VERTEX
  8
CUT
 10
1621.32
 20
42.606
 30
0
 0
VERTEX
  8
CUT
 10
1621.62
 20
45.555
 30
0
 0
VERTEX
  8
CUT
 10
1623.59
 20
57.653
 30
0
 0
VERTEX
  8
CUT
 10
1636.93
 20
134.737
 30
0
 0
VERTEX
  8
CUT
 10
1649.73
 20
211.146
 30
0
 0
VERTEX
  8
CUT
 10
1648.81
 20
211.847
 30
0
 0
VERTEX
  8
CUT
 10
1648.1
 20
212.779
 30
0
 0
VERTEX
  8
CUT
 10
1647.65
 20
213.866
 30
0
 0
VERTEX
  8
CUT
 10
1647.49
 20
215.029
 30
0
 0
VERTEX
  8
CUT
 10
1647.65
 20
216.195
 30
0
 0
VERTEX
  8
CUT
 10
1648.1
 20
217.28
 30
0
 0
VERTEX
  8
CUT
 10
1648.81
 20
218.212
 30
0
 0
VERTEX
  8
CUT
 10
1649.74
 20
218.926
 30
0
 0
VERTEX
  8
CUT
 10
1650.83
 20
219.373
 30
0
 0
VERTEX
  8
CUT
 10
1651.11
 20
219.411
 30
0
 0
VERTEX
  8
CUT
 10
1656.72
 20
252.921
 30
0
 0
VERTEX
  8
CUT
 10
1670.24
 20
333.048
 30
0
 0
VERTEX
  8
CUT
 10
1673.36
 20
349.037
 30
0
 0
VERTEX
  8
CUT
 10
1675.55
 20
358.948
 30
0
 0
VERTEX
  8
CUT
 10
1676.22
 20
360.437
 30
0
 0
VERTEX
  8
CUT
 10
1677.22
 20
361.397
 30
0
 0
VERTEX
  8
CUT
 10
1678.12
 20
361.618
 30
0
 0
VERTEX
  8
CUT
 10
1687.15
 20
361.587
 30
0
 0
VERTEX
  8
CUT
 10
1712.98
 20
360.912
 30
0
 0
VERTEX
  8
CUT
 10
1720.09
 20
360.719
 30
0
 0
VERTEX
  8
CUT
 10
1759.3
 20
359.721
 30
0
 0
VERTEX
  8
CUT
 10
1789.07
 20
359.505
 30
0
 0
VERTEX
  8
CUT
 10
1794.91
 20
359.345
 30
0
 0
VERTEX
  8
CUT
 10
1800.72
 20
358.862
 30
0
 0
VERTEX
  8
CUT
 10
1802.92
 20
358.542
 30
0
 0
VERTEX
  8
CUT
 10
1804.99
 20
357.851
 30
0
 0
VERTEX
  8
CUT
 10
1806.22
 20
356.922
 30
0
 0
VERTEX
  8
CUT
 10
1807.15
 20
355.692
 30
0
 0
VERTEX
  8
CUT
 10
1808.01
 20
352.441
 30
0
 0
VERTEX
  8
CUT
 10
1808.29
 20
349.012
 30
0
 0
VERTEX
  8
CUT
 10
1808.8
 20
340.076
 30
0
 0
VERTEX
  8
CUT
 10
1810.41
 20
333.592
 30
0
 0
VERTEX
  8
CUT
 10
1812.51
 20
327.226
 30
0
 0
VERTEX
  8
CUT
 10
1817.25
 20
314.656
 30
0
 0
VERTEX
  8
CUT
 10
1826.27
 20
291.402
 30
0
 0
VERTEX
  8
CUT
 10
1835.7
 20
268.306
 30
0
 0
VERTEX
  8
CUT
 10
1845.43
 20
244.869
 30
0
 0
VERTEX
  8
CUT
 10
1846.1
 20
243.165
 30
0
 0
VERTEX
  8
CUT
 10
1846.85
 20
241.463
 30
0
 0
VERTEX
  8
CUT
 10
1847.35
 20
240.919
 30
0
 0
VERTEX
  8
CUT
 10
1848.32
 20
240.762
 30
0
 0
VERTEX
  8
CUT
 10
1851.63
 20
240.823
 30
0
 0
VERTEX
  8
CUT
 10
1854.99
 20
240.991
 30
0
 0
VERTEX
  8
CUT
 10
1863.13
 20
241.593
 30
0
 0
VERTEX
  8
CUT
 10
1863.52
 20
242.525
 30
0
 0
VERTEX
  8
CUT
 10
1864.23
 20
243.457
 30
0
 0
VERTEX
  8
CUT
 10
1865.17
 20
244.171
 30
0
 0
VERTEX
  8
CUT
 10
1866.25
 20
244.618
 30
0
 0
VERTEX
  8
CUT
 10
1867.42
 20
244.773
 30
0
 0
VERTEX
  8
CUT
 10
1868.58
 20
244.618
 30
0
 0
VERTEX
  8
CUT
 10
1869.67
 20
244.171
 30
0
 0
VERTEX
  8
CUT
 10
1870.6
 20
243.457
 30
0
 0
VERTEX
  8
CUT
 10
1871.31
 20
242.525
 30
0
 0
VERTEX
  8
CUT
 10
1871.45
 20
242.205
 30
0
 0
VERTEX
  8
CUT
 10
1891.78
 20
243.706
 30
0
 0
VERTEX
  8
CUT
 10
1948.42
 20
246.294
 30
0
 0
VERTEX
  8
CUT
 10
1961.56
 20
247.054
 30
0
 0
VERTEX
  8
CUT
 10
1961.76
 20
247.551
 30
0
 0
VERTEX
  8
CUT
 10
1962.48
 20
248.484
 30
0
 0
VERTEX
  8
CUT
 10
1963.41
 20
249.197
 30
0
 0
VERTEX
  8
CUT
 10
1964.5
 20
249.647
 30
0
 0
VERTEX
  8
CUT
 10
1965.66
 20
249.802
 30
0
 0
VERTEX
  8
CUT
 10
1966.82
 20
249.647
 30
0
 0
VERTEX
  8
CUT
 10
1967.91
 20
249.197
 30
0
 0
VERTEX
  8
CUT
 10
1968.84
 20
248.484
 30
0
 0
VERTEX
  8
CUT
 10
1969.62
 20
247.473
 30
0
 0
VERTEX
  8
CUT
 10
1996.92
 20
249.098
 30
0
 0
VERTEX
  8
CUT
 10
2008.93
 20
249.67
 30
0
 0
VERTEX
  8
CUT
 10
2015.73
 20
250.246
 30
0
 0
VERTEX
  8
CUT
 10
2022.48
 20
251.186
 30
0
 0
VERTEX
  8
CUT
 10
2030.48
 20
253.386
 30
0
 0
VERTEX
  8
CUT
 10
2034.08
 20
254.757
 30
0
 0
VERTEX
  8
CUT
 10
2037.54
 20
256.426
 30
0
 0
VERTEX
  8
CUT
 10
2043.17
 20
260.386
 30
0
 0
VERTEX
  8
CUT
 10
2052.71
 20
268.019
 30
0
 0
VERTEX
  8
CUT
 10
2053.22
 20
268.461
 30
0
 0
VERTEX
  8
CUT
 10
2053.11
 20
269.261
 30
0
 0
VERTEX
  8
CUT
 10
2053.27
 20
270.424
 30
0
 0
VERTEX
  8
CUT
 10
2053.72
 20
271.509
 30
0
 0
VERTEX
  8
CUT
 10
2054.43
 20
272.443
 30
0
 0
VERTEX
  8
CUT
 10
2055.36
 20
273.157
 30
0
 0
VERTEX
  8
CUT
 10
2056.45
 20
273.607
 30
0
 0
VERTEX
  8
CUT
 10
2057.61
 20
273.762
 30
0
 0
VERTEX
  8
CUT
 10
2058.78
 20
273.607
 30
0
 0
VERTEX
  8
CUT
 10
2058.91
 20
273.551
 30
0
 0
VERTEX
  8
CUT
 10
2071.75
 20
284.986
 30
0
 0
VERTEX
  8
CUT
 10
2089.2
 20
301.748
 30
0
 0
VERTEX
  8
CUT
 10
2106.03
 20
319.139
 30
0
 0
VERTEX
  8
CUT
 10
2112.3
 20
325.7
 30
0
 0
VERTEX
  8
CUT
 10
2115.12
 20
329.2
 30
0
 0
VERTEX
  8
CUT
 10
2117.51
 20
332.979
 30
0
 0
VERTEX
  8
CUT
 10
2118.03
 20
334.696
 30
0
 0
VERTEX
  8
CUT
 10
2118.22
 20
336.5
 30
0
 0
VERTEX
  8
CUT
 10
2117.92
 20
340.079
 30
0
 0
VERTEX
  8
CUT
 10
2117.65
 20
343.536
 30
0
 0
VERTEX
  8
CUT
 10
2117.26
 20
348.395
 30
0
 0
VERTEX
  8
CUT
 10
2117.34
 20
349.705
 30
0
 0
VERTEX
  8
CUT
 10
2117.79
 20
351.026
 30
0
 0
VERTEX
  8
CUT
 10
2118.75
 20
352.108
 30
0
 0
VERTEX
  8
CUT
 10
2119.93
 20
352.939
 30
0
 0
VERTEX
  8
CUT
 10
2121.34
 20
353.332
 30
0
 0
VERTEX
  8
CUT
 10
2123
 20
353.399
 30
0
 0
VERTEX
  8
CUT
 10
2124.71
 20
353.36
 30
0
 0
VERTEX
  8
CUT
 10
2132.35
 20
353.19
 30
0
 0
VERTEX
  8
CUT
 10
2166.72
 20
352.532
 30
0
 0
VERTEX
  8
CUT
 10
2218.38
 20
351.227
 30
0
 0
VERTEX
  8
CUT
 10
2218.63
 20
351.824
 30
0
 0
VERTEX
  8
CUT
 10
2219.34
 20
352.756
 30
0
 0
VERTEX
  8
CUT
 10
2220.27
 20
353.47
 30
0
 0
VERTEX
  8
CUT
 10
2221.36
 20
353.919
 30
0
 0
VERTEX
  8
CUT
 10
2222.52
 20
354.074
 30
0
 0
VERTEX
  8
CUT
 10
2223.69
 20
353.919
 30
0
 0
VERTEX
  8
CUT
 10
2224.78
 20
353.47
 30
0
 0
VERTEX
  8
CUT
 10
2225.71
 20
352.756
 30
0
 0
VERTEX
  8
CUT
 10
2226.42
 20
351.824
 30
0
 0
VERTEX
  8
CUT
 10
2226.75
 20
351.031
 30
0
 0
VERTEX
  8
CUT
 10
2314.85
 20
349.088
 30
0
 0
VERTEX
  8
CUT
 10
2319.95
 20
348.989
 30
0
 0
VERTEX
  8
CUT
 10
2320.28
 20
349.784
 30
0
 0
VERTEX
  8
CUT
 10
2320.99
 20
350.716
 30
0
 0
VERTEX
  8
CUT
 10
2321.93
 20
351.43
 30
0
 0
VERTEX
  8
CUT
 10
2323.01
 20
351.88
 30
0
 0
VERTEX
  8
CUT
 10
2324.18
 20
352.035
 30
0
 0
VERTEX
  8
CUT
 10
2325.34
 20
351.88
 30
0
 0
VERTEX
  8
CUT
 10
2326.43
 20
351.43
 30
0
 0
VERTEX
  8
CUT
 10
2327.36
 20
350.716
 30
0
 0
VERTEX
  8
CUT
 10
2328.07
 20
349.784
 30
0
 0
VERTEX
  8
CUT
 10
2328.47
 20
348.824
 30
0
 0
VERTEX
  8
CUT
 10
2368.22
 20
348.049
 30
0
 0
VERTEX
  8
CUT
 10
2416
 20
347.076
 30
0
 0
VERTEX
  8
CUT
 10
2425.51
 20
346.993
 30
0
 0
VERTEX
  8
CUT
 10
2430.1
 20
346.784
 30
0
 0
VERTEX
  8
CUT
 10
2433.64
 20
346.515
 30
0
 0
VERTEX
  8
CUT
 10
2435.91
 20
346.066
 30
0
 0
VERTEX
  8
CUT
 10
2437.41
 20
345.565
 30
0
 0
VERTEX
  8
CUT
 10
2438.76
 20
344.747
 30
0
 0
VERTEX
  8
CUT
 10
2439.64
 20
343.515
 30
0
 0
VERTEX
  8
CUT
 10
2440.13
 20
342.123
 30
0
 0
VERTEX
  8
CUT
 10
2440.18
 20
340.363
 30
0
 0
VERTEX
  8
CUT
 10
2439.79
 20
336.383
 30
0
 0
VERTEX
  8
CUT
 10
2439.43
 20
333.686
 30
0
 0
VERTEX
  8
CUT
 10
2438.28
 20
328.504
 30
0
 0
VERTEX
  8
CUT
 10
2436.77
 20
323.421
 30
0
 0
VERTEX
  8
CUT
 10
2433.77
 20
315.532
 30
0
 0
VERTEX
  8
CUT
 10
2430
 20
307.993
 30
0
 0
VERTEX
  8
CUT
 10
2425.29
 20
301.016
 30
0
 0
VERTEX
  8
CUT
 10
2420.18
 20
294.31
 30
0
 0
VERTEX
  8
CUT
 10
2409.33
 20
281.349
 30
0
 0
VERTEX
  8
CUT
 10
2392.54
 20
261.844
 30
0
 0
VERTEX
  8
CUT
 10
2375.48
 20
242.576
 30
0
 0
VERTEX
  8
CUT
 10
2375.54
 20
241.166
 30
0
 0
VERTEX
  8
CUT
 10
2375.29
 20
239.395
 30
0
 0
VERTEX
  8
CUT
 10
2374.59
 20
237.752
 30
0
 0
VERTEX
  8
CUT
 10
2373.5
 20
236.345
 30
0
 0
VERTEX
  8
CUT
 10
2372.08
 20
235.276
 30
0
 0
VERTEX
  8
CUT
 10
2370.44
 20
234.608
 30
0
 0
VERTEX
  8
CUT
 10
2368.68
 20
234.392
 30
0
 0
VERTEX
  8
CUT
 10
2368.42
 20
234.44
 30
0
 0
VERTEX
  8
CUT
 10
2356.11
 20
220.333
 30
0
 0
VERTEX
  8
CUT
 10
2308.8
 20
164.432
 30
0
 0
VERTEX
  8
CUT
 10
2308.93
 20
163.033
 30
0
 0
VERTEX
  8
CUT
 10
2308.71
 20
161.466
 30
0
 0
VERTEX
  8
CUT
 10
2308.1
 20
160.01
 30
0
 0
VERTEX
  8
CUT
 10
2307.13
 20
158.76
 30
0
 0
VERTEX
  8
CUT
 10
2305.88
 20
157.808
 30
0
 0
VERTEX
  8
CUT
 10
2304.42
 20
157.214
 30
0
 0
VERTEX
  8
CUT
 10
2302.86
 20
157.013
 30
0
 0
VERTEX
  8
CUT
 10
2302.56
 20
157.059
 30
0
 0
VERTEX
  8
CUT
 10
2273.06
 20
123.167
 30
0
 0
VERTEX
  8
CUT
 10
2257.16
 20
105.288
 30
0
 0
VERTEX
  8
CUT
 10
2254.63
 20
102.347
 30
0
 0
VERTEX
  8
CUT
 10
2252.42
 20
100.043
 30
0
 0
VERTEX
  8
CUT
 10
2250.95
 20
98.6995
 30
0
 0
VERTEX
  8
CUT
 10
2246.15
 20
100.376
 30
0
 0
VERTEX
  8
CUT
 10
2242.3
 20
102.019
 30
0
 0
VERTEX
  8
CUT
 10
2239.08
 20
103.048
 30
0
 0
VERTEX
  8
CUT
 10
2237.55
 20
103.454
 30
0
 0
VERTEX
  8
CUT
 10
2235.33
 20
103.444
 30
0
 0
VERTEX
  8
CUT
 10
2232.56
 20
103.114
 30
0
 0
VERTEX
  8
CUT
 10
2230.69
 20
102.837
 30
0
 0
VERTEX
  8
CUT
 10
2230.26
 20
102.278
 30
0
 0
VERTEX
  8
CUT
 10
2229.33
 20
101.565
 30
0
 0
VERTEX
  8
CUT
 10
2228.24
 20
101.115
 30
0
 0
VERTEX
  8
CUT
 10
2227.08
 20
100.96
 30
0
 0
VERTEX
  8
CUT
 10
2225.92
 20
101.115
 30
0
 0
VERTEX
  8
CUT
 10
2224.83
 20
101.565
 30
0
 0
VERTEX
  8
CUT
 10
2224.05
 20
102.164
 30
0
 0
VERTEX
  8
CUT
 10
2211.82
 20
100.914
 30
0
 0
VERTEX
  8
CUT
 10
2192.35
 20
98.9789
 30
0
 0
VERTEX
  8
CUT
 10
2191.38
 20
98.8976
 30
0
 0
VERTEX
  8
CUT
 10
2191.27
 20
98.6182
 30
0
 0
VERTEX
  8
CUT
 10
2190.22
 20
97.2466
 30
0
 0
VERTEX
  8
CUT
 10
2188.87
 20
96.2129
 30
0
 0
VERTEX
  8
CUT
 10
2187.3
 20
95.5626
 30
0
 0
VERTEX
  8
CUT
 10
2185.61
 20
95.3391
 30
0
 0
VERTEX
  8
CUT
 10
2183.92
 20
95.5626
 30
0
 0
VERTEX
  8
CUT
 10
2182.35
 20
96.2129
 30
0
 0
VERTEX
  8
CUT
 10
2181
 20
97.2466
 30
0
 0
VERTEX
  8
CUT
 10
2180.23
 20
97.9705
 30
0
 0
VERTEX
  8
CUT
 10
2109.71
 20
92.1107
 30
0
 0
VERTEX
  8
CUT
 10
2109.17
 20
91.3691
 30
0
 0
VERTEX
  8
CUT
 10
2108.14
 20
90.0178
 30
0
 0
VERTEX
  8
CUT
 10
2106.78
 20
88.984
 30
0
 0
VERTEX
  8
CUT
 10
2105.21
 20
88.3338
 30
0
 0
VERTEX
  8
CUT
 10
2103.53
 20
88.1102
 30
0
 0
VERTEX
  8
CUT
 10
2101.84
 20
88.3338
 30
0
 0
VERTEX
  8
CUT
 10
2100.27
 20
88.984
 30
0
 0
VERTEX
  8
CUT
 10
2098.92
 20
90.0178
 30
0
 0
VERTEX
  8
CUT
 10
2097.98
 20
91.1354
 30
0
 0
VERTEX
  8
CUT
 10
2092.9
 20
90.7112
 30
0
 0
VERTEX
  8
CUT
 10
2013.13
 20
83.8608
 30
0
 0
VERTEX
  8
CUT
 10
2012.6
 20
83.8075
 30
0
 0
VERTEX
  8
CUT
 10
2011.52
 20
82.3546
 30
0
 0
VERTEX
  8
CUT
 10
2010.17
 20
81.3208
 30
0
 0
VERTEX
  8
CUT
 10
2008.6
 20
80.6706
 30
0
 0
VERTEX
  8
CUT
 10
2006.91
 20
80.4445
 30
0
 0
VERTEX
  8
CUT
 10
2005.22
 20
80.6706
 30
0
 0
VERTEX
  8
CUT
 10
2003.65
 20
81.3208
 30
0
 0
VERTEX
  8
CUT
 10
2002.27
 20
82.3774
 30
0
 0
VERTEX
  8
CUT
 10
2001.99
 20
82.7711
 30
0
 0
VERTEX
  8
CUT
 10
1974.44
 20
80.729
 30
0
 0
VERTEX
  8
CUT
 10
1972.54
 20
80.5105
 30
0
 0
VERTEX
  8
CUT
 10
1971.19
 20
80.2667
 30
0
 0
VERTEX
  8
CUT
 10
1969.86
 20
79.8832
 30
0
 0
VERTEX
  8
CUT
 10
1969.04
 20
79.4869
 30
0
 0
VERTEX
  8
CUT
 10
1968.08
 20
78.4633
 30
0
 0
VERTEX
  8
CUT
 10
1967.49
 20
77.333
 30
0
 0
VERTEX
  8
CUT
 10
1966.01
 20
73.9726
 30
0
 0
VERTEX
  8
CUT
 10
1964.58
 20
70.0813
 30
0
 0
VERTEX
  8
CUT
 10
1963.93
 20
68.7783
 30
0
 0
VERTEX
  8
CUT
 10
1962.75
 20
66.0605
 30
0
 0
VERTEX
  8
CUT
 10
1958.21
 20
58.4481
 30
0
 0
VERTEX
  8
CUT
 10
1956.11
 20
54.5847
 30
0
 0
VERTEX
  8
CUT
 10
1954.44
 20
50.5512
 30
0
 0
VERTEX
  8
CUT
 10
1954.05
 20
46.6447
 30
0
 0
VERTEX
  8
CUT
 10
1954.24
 20
42.6746
 30
0
 0
VERTEX
  8
CUT
 10
1956.56
 20
21.1709
 30
0
 0
VERTEX
  8
CUT
 10
1956.54
 20
18.9713
 30
0
 0
VERTEX
  8
CUT
 10
1956.06
 20
16.8733
 30
0
 0
VERTEX
  8
CUT
 10
1954.47
 20
14.6634
 30
0
 0
VERTEX
  8
CUT
 10
1952.28
 20
13.0226
 30
0
 0
VERTEX
  8
CUT
 10
1948.89
 20
12.0599
 30
0
 0
VERTEX
  8
CUT
 10
1945.32
 20
11.684
 30
0
 0
VERTEX
  8
CUT
 10
1942.5
 20
11.4529
 30
0
  0
SEQEND
  0
TEXT
  8
ANNOTATION
 10
2300.75
 20
158.799
 30
0
 40
6.35001
  1

 50
0
 41
1
 71
0
 72
0
 73
0
  0
TEXT
  8
ANNOTATION
 10
2367.13
 20
236.365
 30
0
 40
6.35001
  1

 50
0
 41
1
 71
0
 72
0
 73
0
  0
TEXT
  8
ANNOTATION
 10
2429.61
 20
335.047
 30
0
 40
6.35001
  1

 50
0
 41
1
 71
0
 72
0
 73
0
  0
TEXT
  8
ANNOTATION
 10
2321
 20
344.359
 30
0
 40
6.35001
  1

 50
0
 41
1
 71
0
 72
0
 73
0
  0
TEXT
  8
ANNOTATION
 10
2219.35
 20
346.398
 30
0
 40
6.35001
  1

 50
0
 41
1
 71
0
 72
0
 73
0
  0
TEXT
  8
ANNOTATION
 10
2118.73
 20
345.679
 30
0
 40
6.35001
  1

 50
0
 41
1
 71
0
 72
0
 73
0
  0
TEXT
  8
ANNOTATION
 10
2054.44
 20
266.086
 30
0
 40
6.35001
  1

 50
0
 41
1
 71
0
 72
0
 73
0
  0
TEXT
  8
ANNOTATION
 10
1962.48
 20
242.126
 30
0
 40
6.35001
  1

 50
0
 41
1
 71
0
 72
0
 73
0
  0
TEXT
  8
ANNOTATION
 10
1864.24
 20
237.099
 30
0
 40
6.35001
  1

 50
0
 41
1
 71
0
 72
0
 73
0
  0
TEXT
  8
ANNOTATION
 10
1799.49
 20
349.723
 30
0
 40
6.35001
  1

 50
0
 41
1
 71
0
 72
0
 73
0
  0
TEXT
  8
ANNOTATION
 10
1625.39
 20
39.1821
 30
0
 40
6.35001
  1

 50
0
 41
1
 71
0
 72
0
 73
0
  0
TEXT
  8
ANNOTATION
 10
1718.72
 20
47.2898
 30
0
 40
6.35001
  1

 50
0
 41
1
 71
0
 72
0
 73
0
  0
TEXT
  8
ANNOTATION
 10
1935.79
 20
11.0058
 30
0
 40
6.35001
  1

 50
0
 41
1
 71
0
 72
0
 73
0
  0
TEXT
  8
ANNOTATION
 10
2003.74
 20
81.7907
 30
0
 40
6.35001
  1

 50
0
 41
1
 71
0
 72
0
 73
0
  0
TEXT
  8
ANNOTATION
 10
2100.35
 20
89.4539
 30
0
 40
6.35001
  1

 50
0
 41
1
 71
0
 72
0
 73
0
  0
TEXT
  8
ANNOTATION
 10
2182.44
 20
96.6828
 30
0
 40
6.35001
  1

 50
0
 41
1
 71
0
 72
0
 73
0
  0
TEXT
  8
ANNOTATION
 10
2223.9
 20
102.286
 30
0
 40
6.35001
  1

 50
0
 41
1
 71
0
 72
0
 73
0
  0
TEXT
  8
ANNOTATION
 10
1676.55
 20
354.064
 30
0
 40
6.35001
  1

 50
0
 41
1
 71
0
 72
0
 73
0
  0
TEXT
  8
ANNOTATION
 10
1918.77
 20
10.8204
 30
0
 40
2.99975
  1
G
 50
0
 41
1
 71
0
 72
0
 73
0
  0
TEXT
  8
ANNOTATION
 10
2179.11
 20
101.031
 30
0
 40
2.99975
  1
G
 50
0
 41
1
 71
0
 72
0
 73
0
  0
TEXT
  8
ANNOTATION
 10
2363.56
 20
239.355
 30
0
 40
2.99975
  1
P
 50
0
 41
1
 71
0
 72
0
 73
0
  0
TEXT
  8
ANNOTATION
 10
2298.09
 20
163.942
 30
0
 40
2.99975
  1
P
 50
0
 41
1
 71
0
 72
0
 73
0
  0
TEXT
  8
ANNOTATION
 10
2231.83
 20
107.14
 30
0
 40
2.99975
  1
P
 50
0
 41
1
 71
0
 72
0
 73
0
  0
TEXT
  8
ANNOTATION
 10
2096.31
 20
93.5992
 30
0
 40
2.99975
  1
P
 50
0
 41
1
 71
0
 72
0
 73
0
  0
TEXT
  8
ANNOTATION
 10
1998.1
 20
85.6083
 30
0
 40
2.99975
  1
P
 50
0
 41
1
 71
0
 72
0
 73
0
  0
TEXT
  8
ANNOTATION
 10
1932.24
 20
13.4239
 30
0
 40
2.99975
  1
P
 50
0
 41
1
 71
0
 72
0
 73
0
  0
TEXT
  8
ANNOTATION
 10
1835.62
 20
4.29515
 30
0
 40
2.99975
  1
P
 50
0
 41
1
 71
0
 72
0
 73
0
  0
TEXT
  8
ANNOTATION
 10
1715.48
 20
49.7308
 30
0
 40
2.99975
  1
P
 50
0
 41
1
 71
0
 72
0
 73
0
  0
TEXT
  8
ANNOTATION
 10
1650.32
 20
209.888
 30
0
 40
2.99975
  1
P
 50
0
 41
1
 71
0
 72
0
 73
0
  0
TEXT
  8
ANNOTATION
 10
1676.82
 20
351.699
 30
0
 40
2.99975
  1
P
 50
0
 41
1
 71
0
 72
0
 73
0
  0
TEXT
  8
ANNOTATION
 10
1870.35
 20
237.742
 30
0
 40
2.99975
  1
P
 50
0
 41
1
 71
0
 72
0
 73
0
  0
TEXT
  8
ANNOTATION
 10
1967.75
 20
242.736
 30
0
 40
2.99975
  1
P
 50
0
 41
1
 71
0
 72
0
 73
0
  0
TEXT
  8
ANNOTATION
 10
2060.11
 20
268.052
 30
0
 40
2.99975
  1
P
 50
0
 41
1
 71
0
 72
0
 73
0
  0
TEXT
  8
ANNOTATION
 10
2125.1
 20
347.932
 30
0
 40
2.99975
  1
P
 50
0
 41
1
 71
0
 72
0
 73
0
  0
TEXT
  8
ANNOTATION
 10
2224.23
 20
346.401
 30
0
 40
2.99975
  1
P
 50
0
 41
1
 71
0
 72
0
 73
0
  0
TEXT
  8
ANNOTATION
 10
2326.53
 20
343.912
 30
0
 40
2.99975
  1
P
 50
0
 41
1
 71
0
 72
0
 73
0
  0
TEXT
  8
ANNOTATION
 10
2169.43
 20
267.173
 30
0
 40
6.99771
  1
Ddaimler
 50
0
 41
1
 71
0
 72
0
 73
0
  0
TEXT
  8
ANNOTATION
 10
2169.43
 20
30.2425
 30
0
 40
6.99771
  1
X204
 50
0
 41
1
 71
0
 72
0
 73
0
  0
TEXT
  8
ANNOTATION
 10
2169.43
 20
-206.688
 30
0
 40
6.99771
  1
TMF HR
 50
0
 41
1
 71
0
 72
0
 73
0
  0
TEXT
  8
ANNOTATION
 10
2169.43
 20
-443.618
 30
0
 40
6.99771
  1
14812  St.02
 50
0
 41
1
 71
0
 72
0
 73
0
  0
TEXT
  8
ANNOTATION
 10
1964.38
 20
181.511
 30
0
 40
6.99771
  1
TV-TMF-HR-LL-01-02L
 50
0
 41
1
 71
0
 72
0
 73
0
 0
ENDBLK
 0
BLOCK
  8
LAYER0
  2
BLOCK4
 70
64
 10
0
 20
0
 30
0
  3
BLOCK4
 999
_NOTCHcei
 0
LINE
  8
V_NOTCH
 10
2533.73
 20
435.875
 30
0
 11
2534.09
 21
434.943
 31
0
 999
_NOTCHcei
 0
LINE
  8
V_NOTCH
 10
2627.21
 20
443.096
 30
0
 11
2627.57
 21
442.164
 31
0
 999
_NOTCHcei
 0
LINE
  8
V_NOTCH
 10
2718.58
 20
457.076
 30
0
 11
2718.94
 21
456.144
 31
0
 999
_NOTCHcei
 0
LINE
  8
V_NOTCH
 10
2791.14
 20
521.491
 30
0
 11
2791.5
 21
520.561
 31
0
 999
_NOTCHcei
 0
LINE
  8
V_NOTCH
 10
2886.68
 20
528.306
 30
0
 11
2887.04
 21
527.374
 31
0
 999
_NOTCHcei
 0
LINE
  8
V_NOTCH
 10
2954.07
 20
355.436
 30
0
 11
2953.71
 21
356.365
 31
0
 999
_NOTCHcei
 0
LINE
  8
V_NOTCH
 10
2855.28
 20
357.866
 30
0
 11
2854.91
 21
358.793
 31
0
 999
_NOTCHcei
 0
LINE
  8
V_NOTCH
 10
2753.89
 20
366.271
 30
0
 11
2753.53
 21
367.201
 31
0
 999
_NOTCHcei
 0
LINE
  8
V_NOTCH
 10
2654.08
 20
373.739
 30
0
 11
2653.72
 21
374.669
 31
0
 999
_NOTCHcei
 0
LINE
  8
V_NOTCH
 10
2594.17
 20
280.201
 30
0
 11
2593.8
 21
281.13
 31
0
 0
POLYLINE
  8
CUT
  66
     1
 10
0
 20
0
 30
0
 0
VERTEX
  8
CUT
 10
2450.38
 20
429.413
 30
0
 0
VERTEX
  8
CUT
 10
2533.73
 20
435.875
 30
0
 0
VERTEX
  8
CUT
 10
2580.49
 20
439.327
 30
0
 0
VERTEX
  8
CUT
 10
2627.21
 20
443.096
 30
0
 0
VERTEX
  8
CUT
 10
2659.4
 20
446.017
 30
0
 0
VERTEX
  8
CUT
 10
2691.47
 20
449.87
 30
0
 0
VERTEX
  8
CUT
 10
2700.99
 20
451.42
 30
0
 0
VERTEX
  8
CUT
 10
2710.36
 20
453.614
 30
0
 0
VERTEX
  8
CUT
 10
2716.09
 20
455.936
 30
0
 0
VERTEX
  8
CUT
 10
2718.58
 20
457.076
 30
0
 0
VERTEX
  8
CUT
 10
2723.11
 20
459.695
 30
0
 0
VERTEX
  8
CUT
 10
2727.45
 20
462.609
 30
0
 0
VERTEX
  8
CUT
 10
2739.13
 20
471.966
 30
0
 0
VERTEX
  8
CUT
 10
2750.4
 20
481.814
 30
0
 0
VERTEX
  8
CUT
 10
2762.05
 20
492.69
 30
0
 0
VERTEX
  8
CUT
 10
2773.46
 20
503.82
 30
0
 0
VERTEX
  8
CUT
 10
2791.14
 20
521.491
 30
0
 0
VERTEX
  8
CUT
 10
2794.29
 20
524.465
 30
0
 0
VERTEX
  8
CUT
 10
2797.19
 20
527.643
 30
0
 0
VERTEX
  8
CUT
 10
2798.59
 20
530.254
 30
0
 0
VERTEX
  8
CUT
 10
2799.07
 20
535.875
 30
0
 0
VERTEX
  8
CUT
 10
2799.47
 20
537.93
 30
0
 0
VERTEX
  8
CUT
 10
2886.68
 20
528.306
 30
0
 0
VERTEX
  8
CUT
 10
3012.47
 20
515.016
 30
0
 0
VERTEX
  8
CUT
 10
3004.65
 20
493.264
 30
0
 0
VERTEX
  8
CUT
 10
2979.15
 20
423.576
 30
0
 0
VERTEX
  8
CUT
 10
2954.07
 20
355.436
 30
0
 0
VERTEX
  8
CUT
 10
2952.27
 20
350.767
 30
0
 0
VERTEX
  8
CUT
 10
2924.95
 20
352.962
 30
0
 0
VERTEX
  8
CUT
 10
2861.4
 20
357.412
 30
0
 0
VERTEX
  8
CUT
 10
2855.28
 20
357.866
 30
0
 0
VERTEX
  8
CUT
 10
2753.89
 20
366.271
 30
0
 0
VERTEX
  8
CUT
 10
2704.01
 20
370.264
 30
0
 0
VERTEX
  8
CUT
 10
2654.08
 20
373.739
 30
0
 0
VERTEX
  8
CUT
 10
2636.96
 20
374.704
 30
0
 0
VERTEX
  8
CUT
 10
2619.83
 20
375.116
 30
0
 0
VERTEX
  8
CUT
 10
2616.93
 20
375.179
 30
0
 0
VERTEX
  8
CUT
 10
2614.1
 20
374.79
 30
0
 0
VERTEX
  8
CUT
 10
2610.49
 20
372.896
 30
0
 0
VERTEX
  8
CUT
 10
2607.47
 20
370.135
 30
0
 0
VERTEX
  8
CUT
 10
2605.93
 20
367.943
 30
0
 0
VERTEX
  8
CUT
 10
2604.66
 20
365.58
 30
0
 0
VERTEX
  8
CUT
 10
2602.86
 20
360.495
 30
0
 0
VERTEX
  8
CUT
 10
2602.38
 20
356.695
 30
0
 0
VERTEX
  8
CUT
 10
2602.23
 20
352.835
 30
0
 0
VERTEX
  8
CUT
 10
2612.88
 20
353.368
 30
0
 0
VERTEX
  8
CUT
 10
2617.88
 20
278.847
 30
0
 0
VERTEX
  8
CUT
 10
2594.17
 20
280.201
 30
0
 0
VERTEX
  8
CUT
 10
2497.6
 20
283.764
 30
0
 0
VERTEX
  8
CUT
 10
2481.72
 20
326.711
 30
0
 0
VERTEX
  8
CUT
 10
2450.35
 20
409.83
 30
0
 0
VERTEX
  8
CUT
 10
2446.53
 20
420.066
 30
0
 0
VERTEX
  8
CUT
 10
2450.38
 20
429.413
 30
0
  0
SEQEND
  0
TEXT
  8
ANNOTATION
 10
2821.01
 20
469.022
 30
0
 40
6.99771
  1
Daimler
 50
0
 41
1
 71
0
 72
0
 73
0
  0
TEXT
  8
ANNOTATION
 10
2821.01
 20
232.092
 30
0
 40
6.99771
  1
X204
 50
0
 41
1
 71
0
 72
0
 73
0
  0
TEXT
  8
ANNOTATION
 10
2821.01
 20
-4.83883
 30
0
 40
6.99771
  1
TMF vorne Schaum
 50
0
 41
1
 71
0
 72
0
 73
0
  0
TEXT
  8
ANNOTATION
 10
2821.01
 20
-241.769
 30
0
 40
6.99771
  1
14811  St.01
 50
0
 41
1
 71
0
 72
0
 73
0
  0
TEXT
  8
ANNOTATION
 10
2697.34
 20
408.875
 30
0
 40
6.99771
  1
TV-TMF-V-LL-01-01S
 50
0
 41
1
 71
0
 72
0
 73
0
 0
ENDBLK
 0
BLOCK
  8
LAYER0
  2
BLOCK5
 70
64
 10
0
 20
0
 30
0
  3
BLOCK5
  0
POINT
  8
D
 10
3027.92
 20
659.769
 30
0
  0
POINT
  8
D
 10
3157.54
 20
685.367
 30
0
  0
POINT
  8
D
 10
3258.53
 20
699.213
 30
0
  0
POINT
  8
D
 10
3327.72
 20
632.136
 30
0
 0
LINE
  8
F
 10
3330.79
 20
621.28
 30
0
 11
3336.09
 21
628.687
 31
0
 0
LINE
  8
F
 10
3344.83
 20
613.767
 30
0
 11
3347.73
 21
622.365
 31
0
 0
LINE
  8
F
 10
3354.03
 20
611.43
 30
0
 11
3355.04
 21
620.498
 31
0
  0
POINT
  8
D
 10
3417.52
 20
614.107
 30
0
  0
POINT
  8
D
 10
3511.91
 20
609.98
 30
0
  0
POINT
  8
D
 10
3621.59
 20
595.87
 30
0
  0
POINT
  8
D
 10
3572.97
 20
431.836
 30
0
  0
POINT
  8
D
 10
3471.87
 20
421.796
 30
0
  0
POINT
  8
D
 10
3444.87
 20
424.067
 30
0
  0
POINT
  8
D
 10
3444.87
 20
424.067
 30
0
  0
POINT
  8
D
 10
3381.66
 20
509.649
 30
0
  0
POINT
  8
D
 10
3284.65
 20
498.971
 30
0
  0
POINT
  8
D
 10
3188.49
 20
485.011
 30
0
  0
POINT
  8
D
 10
3117.04
 20
477.861
 30
0
 0
LINE
  8
F
 10
3447.51
 20
513.061
 30
0
 11
3439.16
 21
509.713
 31
0
 0
LINE
  8
F
 10
3444.71
 20
517.318
 30
0
 11
3438.4
 21
510.902
 31
0
 0
LINE
  8
F
 10
3441.07
 20
520.008
 30
0
 11
3436.84
 21
512.192
 31
0
 0
LINE
  8
F
 10
3435.27
 20
521.433
 30
0
 11
3435.02
 21
512.436
 31
0
 0
LINE
  8
Z
 10
3169.57
 20
689.843
 30
0
 11
3097.5
 21
473.744
 31
0
 0
LINE
  8
Z
 10
3176.53
 20
690.866
 30
0
 11
3102.97
 21
470.884
 31
0
 0
LINE
  8
Z
 10
3267.48
 20
697.851
 30
0
 11
3196.04
 21
485.143
 31
0
 0
LINE
  8
Z
 10
3271
 20
689.081
 30
0
 11
3202.93
 21
486.035
 31
0
 0
LINE
  8
Z
 10
3338.47
 20
627.125
 30
0
 11
3295.15
 21
497.224
 31
0
 0
LINE
  8
Z
 10
3343.8
 20
623.95
 30
0
 11
3301.68
 21
497.986
 31
0
 0
LINE
  8
Z
 10
3429.69
 20
616.053
 30
0
 11
3393.7
 21
508.514
 31
0
 0
LINE
  8
Z
 10
3435.74
 20
615.789
 30
0
 11
3400.09
 21
509.169
 31
0
 0
LINE
  8
Z
 10
3522.91
 20
612.268
 30
0
 11
3458.05
 21
417.521
 31
0
 0
LINE
  8
Z
 10
3529.17
 20
612.073
 30
0
 11
3464.4
 21
418.067
 31
0
  0
POINT
  8
D
 10
3214.64
 20
490.592
 30
0
 0
POLYLINE
  8
CUT
  66
     1
 10
0
 20
0
 30
0
 0
VERTEX
  8
CUT
 10
3099.2
 20
469.578
 30
0
 0
VERTEX
  8
CUT
 10
3076.5
 20
525.27
 30
0
 0
VERTEX
  8
CUT
 10
3058.28
 20
567.897
 30
0
 0
VERTEX
  8
CUT
 10
3040.67
 20
608.766
 30
0
 0
VERTEX
  8
CUT
 10
3022.63
 20
649.449
 30
0
 0
VERTEX
  8
CUT
 10
3020.62
 20
653.645
 30
0
 0
VERTEX
  8
CUT
 10
3019.09
 20
657.986
 30
0
 0
VERTEX
  8
CUT
 10
3018.82
 20
660.312
 30
0
 0
VERTEX
  8
CUT
 10
3019.21
 20
662.565
 30
0
 0
VERTEX
  8
CUT
 10
3020.47
 20
664.191
 30
0
 0
VERTEX
  8
CUT
 10
3022.17
 20
665.446
 30
0
 0
VERTEX
  8
CUT
 10
3026.19
 20
667.087
 30
0
 0
VERTEX
  8
CUT
 10
3034.69
 20
668.969
 30
0
 0
VERTEX
  8
CUT
 10
3046.91
 20
670.935
 30
0
 0
VERTEX
  8
CUT
 10
3062.6
 20
673.475
 30
0
 0
VERTEX
  8
CUT
 10
3130.14
 20
684.067
 30
0
 0
VERTEX
  8
CUT
 10
3153.61
 20
687.508
 30
0
 0
VERTEX
  8
CUT
 10
3153.7
 20
687.711
 30
0
 0
VERTEX
  8
CUT
 10
3154.44
 20
688.626
 30
0
 0
VERTEX
  8
CUT
 10
3155.39
 20
689.317
 30
0
 0
VERTEX
  8
CUT
 10
3156.49
 20
689.741
 30
0
 0
VERTEX
  8
CUT
 10
3157.65
 20
689.863
 30
0
 0
VERTEX
  8
CUT
 10
3158.82
 20
689.682
 30
0
 0
VERTEX
  8
CUT
 10
3159.89
 20
689.205
 30
0
 0
VERTEX
  8
CUT
 10
3160.71
 20
688.542
 30
0
 0
VERTEX
  8
CUT
 10
3199.22
 20
694.196
 30
0
 0
VERTEX
  8
CUT
 10
3249.32
 20
701.488
 30
0
 0
VERTEX
  8
CUT
 10
3255.31
 20
702.319
 30
0
 0
VERTEX
  8
CUT
 10
3255.43
 20
702.471
 30
0
 0
VERTEX
  8
CUT
 10
3256.38
 20
703.165
 30
0
 0
VERTEX
  8
CUT
 10
3257.48
 20
703.586
 30
0
 0
VERTEX
  8
CUT
 10
3258.64
 20
703.708
 30
0
 0
VERTEX
  8
CUT
 10
3259.89
 20
703.655
 30
0
 0
VERTEX
  8
CUT
 10
3261.36
 20
703.396
 30
0
 0
VERTEX
  8
CUT
 10
3262.14
 20
703.073
 30
0
 0
VERTEX
  8
CUT
 10
3262.56
 20
702.807
 30
0
 0
VERTEX
  8
CUT
 10
3266.42
 20
698.933
 30
0
 0
VERTEX
  8
CUT
 10
3269.61
 20
695.685
 30
0
 0
VERTEX
  8
CUT
 10
3270.1
 20
694.468
 30
0
 0
VERTEX
  8
CUT
 10
3271.03
 20
688.903
 30
0
 0
VERTEX
  8
CUT
 10
3271.78
 20
685.916
 30
0
 0
VERTEX
  8
CUT
 10
3272.97
 20
683.114
 30
0
 0
VERTEX
  8
CUT
 10
3274.9
 20
680.714
 30
0
 0
VERTEX
  8
CUT
 10
3277.1
 20
678.534
 30
0
 0
VERTEX
  8
CUT
 10
3281.86
 20
674.475
 30
0
 0
VERTEX
  8
CUT
 10
3298.04
 20
660.335
 30
0
 0
VERTEX
  8
CUT
 10
3314.44
 20
646.452
 30
0
 0
VERTEX
  8
CUT
 10
3326.27
 20
636.36
 30
0
 0
VERTEX
  8
CUT
 10
3326.66
 20
636.513
 30
0
 0
VERTEX
  8
CUT
 10
3327.83
 20
636.637
 30
0
 0
VERTEX
  8
CUT
 10
3328.99
 20
636.454
 30
0
 0
VERTEX
  8
CUT
 10
3330.06
 20
635.979
 30
0
 0
VERTEX
  8
CUT
 10
3330.98
 20
635.24
 30
0
 0
VERTEX
  8
CUT
 10
3331.67
 20
634.29
 30
0
 0
VERTEX
  8
CUT
 10
3332.09
 20
633.193
 30
0
 0
VERTEX
  8
CUT
 10
3332.22
 20
632.024
 30
0
 0
VERTEX
  8
CUT
 10
3332.15
 20
631.626
 30
0
 0
VERTEX
  8
CUT
 10
3337.11
 20
627.976
 30
0
 0
VERTEX
  8
CUT
 10
3342.25
 20
624.638
 30
0
 0
VERTEX
  8
CUT
 10
3346.53
 20
622.753
 30
0
 0
VERTEX
  8
CUT
 10
3350.99
 20
621.334
 30
0
 0
VERTEX
  8
CUT
 10
3356.47
 20
620.206
 30
0
 0
VERTEX
  8
CUT
 10
3362.01
 20
619.441
 30
0
 0
VERTEX
  8
CUT
 10
3373.18
 20
618.418
 30
0
 0
VERTEX
  8
CUT
 10
3413.12
 20
616.777
 30
0
 0
VERTEX
  8
CUT
 10
3413.91
 20
616.741
 30
0
 0
VERTEX
  8
CUT
 10
3414.42
 20
617.369
 30
0
 0
VERTEX
  8
CUT
 10
3415.37
 20
618.057
 30
0
 0
VERTEX
  8
CUT
 10
3416.47
 20
618.481
 30
0
 0
VERTEX
  8
CUT
 10
3417.63
 20
618.606
 30
0
 0
VERTEX
  8
CUT
 10
3418.8
 20
618.425
 30
0
 0
VERTEX
  8
CUT
 10
3419.87
 20
617.948
 30
0
 0
VERTEX
  8
CUT
 10
3420.78
 20
617.206
 30
0
 0
VERTEX
  8
CUT
 10
3421.36
 20
616.416
 30
0
 0
VERTEX
  8
CUT
 10
3497.08
 20
613.106
 30
0
 0
VERTEX
  8
CUT
 10
3508.43
 20
612.769
 30
0
 0
VERTEX
  8
CUT
 10
3508.81
 20
613.236
 30
0
 0
VERTEX
  8
CUT
 10
3509.76
 20
613.929
 30
0
 0
VERTEX
  8
CUT
 10
3510.86
 20
614.351
 30
0
 0
VERTEX
  8
CUT
 10
3512.02
 20
614.475
 30
0
 0
VERTEX
  8
CUT
 10
3513.19
 20
614.295
 30
0
 0
VERTEX
  8
CUT
 10
3514.26
 20
613.818
 30
0
 0
VERTEX
  8
CUT
 10
3515.17
 20
613.078
 30
0
 0
VERTEX
  8
CUT
 10
3515.61
 20
612.497
 30
0
 0
VERTEX
  8
CUT
 10
3568.3
 20
610.846
 30
0
 0
VERTEX
  8
CUT
 10
3586.76
 20
610.516
 30
0
 0
VERTEX
  8
CUT
 10
3605.18
 20
609.624
 30
0
 0
VERTEX
  8
CUT
 10
3612.08
 20
609.058
 30
0
 0
VERTEX
  8
CUT
 10
3615.45
 20
608.453
 30
0
 0
VERTEX
  8
CUT
 10
3618.71
 20
607.475
 30
0
 0
VERTEX
  8
CUT
 10
3620.84
 20
606.363
 30
0
 0
VERTEX
  8
CUT
 10
3622.81
 20
604.976
 30
0
 0
VERTEX
  8
CUT
 10
3626.25
 20
601.595
 30
0
 0
VERTEX
  8
CUT
 10
3628.42
 20
598.286
 30
0
 0
VERTEX
  8
CUT
 10
3629.76
 20
594.58
 30
0
 0
VERTEX
  8
CUT
 10
3629.87
 20
591.532
 30
0
 0
VERTEX
  8
CUT
 10
3629.43
 20
588.473
 30
0
 0
VERTEX
  8
CUT
 10
3627.25
 20
580.335
 30
0
 0
VERTEX
  8
CUT
 10
3624.56
 20
572.324
 30
0
 0
VERTEX
  8
CUT
 10
3604.95
 20
512.04
 30
0
 0
VERTEX
  8
CUT
 10
3584.86
 20
450.98
 30
0
 0
VERTEX
  8
CUT
 10
3578.79
 20
432.512
 30
0
 0
VERTEX
  8
CUT
 10
3578
 20
430.229
 30
0
 0
VERTEX
  8
CUT
 10
3576.89
 20
428.136
 30
0
 0
VERTEX
  8
CUT
 10
3575.86
 20
427.216
 30
0
 0
VERTEX
  8
CUT
 10
3574.64
 20
426.548
 30
0
 0
VERTEX
  8
CUT
 10
3570.35
 20
425.659
 30
0
 0
VERTEX
  8
CUT
 10
3558.7
 20
424.747
 30
0
 0
VERTEX
  8
CUT
 10
3547.01
 20
424.224
 30
0
 0
VERTEX
  8
CUT
 10
3513.77
 20
422.189
 30
0
 0
VERTEX
  8
CUT
 10
3480.57
 20
419.764
 30
0
 0
VERTEX
  8
CUT
 10
3475.51
 20
419.208
 30
0
 0
VERTEX
  8
CUT
 10
3474.97
 20
418.534
 30
0
 0
VERTEX
  8
CUT
 10
3474.02
 20
417.844
 30
0
 0
VERTEX
  8
CUT
 10
3472.93
 20
417.419
 30
0
 0
VERTEX
  8
CUT
 10
3471.76
 20
417.295
 30
0
 0
VERTEX
  8
CUT
 10
3470.6
 20
417.478
 30
0
 0
VERTEX
  8
CUT
 10
3469.52
 20
417.953
 30
0
 0
VERTEX
  8
CUT
 10
3468.91
 20
418.456
 30
0
 0
VERTEX
  8
CUT
 10
3454.72
 20
417.234
 30
0
 0
VERTEX
  8
CUT
 10
3448.66
 20
416.909
 30
0
 0
VERTEX
  8
CUT
 10
3445.68
 20
417.089
 30
0
 0
VERTEX
  8
CUT
 10
3442.77
 20
417.653
 30
0
 0
VERTEX
  8
CUT
 10
3440.41
 20
418.913
 30
0
 0
VERTEX
  8
CUT
 10
3438.61
 20
420.836
 30
0
 0
VERTEX
  8
CUT
 10
3437.86
 20
423.399
 30
0
 0
VERTEX
  8
CUT
 10
3437.69
 20
426.147
 30
0
 0
VERTEX
  8
CUT
 10
3437.81
 20
443.178
 30
0
 0
VERTEX
  8
CUT
 10
3438.74
 20
460.226
 30
0
 0
VERTEX
  8
CUT
 10
3439.55
 20
493.792
 30
0
 0
VERTEX
  8
CUT
 10
3439.67
 20
507.008
 30
0
 0
VERTEX
  8
CUT
 10
3439.55
 20
507.879
 30
0
 0
VERTEX
  8
CUT
 10
3439.41
 20
508.844
 30
0
 0
VERTEX
  8
CUT
 10
3439.17
 20
509.68
 30
0
 0
VERTEX
  8
CUT
 10
3438.82
 20
510.287
 30
0
 0
VERTEX
  8
CUT
 10
3438.36
 20
510.965
 30
0
 0
VERTEX
  8
CUT
 10
3437.68
 20
511.603
 30
0
 0
VERTEX
  8
CUT
 10
3436.89
 20
512.159
 30
0
 0
VERTEX
  8
CUT
 10
3436.14
 20
512.418
 30
0
 0
VERTEX
  8
CUT
 10
3435.15
 20
512.443
 30
0
 0
VERTEX
  8
CUT
 10
3434.08
 20
512.388
 30
0
 0
VERTEX
  8
CUT
 10
3431.57
 20
512.156
 30
0
 0
VERTEX
  8
CUT
 10
3396.17
 20
508.801
 30
0
 0
VERTEX
  8
CUT
 10
3385.61
 20
507.584
 30
0
 0
VERTEX
  8
CUT
 10
3385.5
 20
507.303
 30
0
 0
VERTEX
  8
CUT
 10
3384.76
 20
506.391
 30
0
 0
VERTEX
  8
CUT
 10
3383.81
 20
505.697
 30
0
 0
VERTEX
  8
CUT
 10
3382.72
 20
505.276
 30
0
 0
VERTEX
  8
CUT
 10
3381.55
 20
505.151
 30
0
 0
VERTEX
  8
CUT
 10
3380.39
 20
505.331
 30
0
 0
VERTEX
  8
CUT
 10
3379.31
 20
505.809
 30
0
 0
VERTEX
  8
CUT
 10
3378.4
 20
506.546
 30
0
 0
VERTEX
  8
CUT
 10
3378.23
 20
506.782
 30
0
 0
VERTEX
  8
CUT
 10
3341.46
 20
502.644
 30
0
 0
VERTEX
  8
CUT
 10
3288.33
 20
496.424
 30
0
 0
VERTEX
  8
CUT
 10
3287.75
 20
495.71
 30
0
 0
VERTEX
  8
CUT
 10
3286.8
 20
495.017
 30
0
 0
VERTEX
  8
CUT
 10
3285.7
 20
494.595
 30
0
 0
VERTEX
  8
CUT
 10
3284.54
 20
494.47
 30
0
 0
VERTEX
  8
CUT
 10
3283.38
 20
494.651
 30
0
 0
VERTEX
  8
CUT
 10
3282.3
 20
495.128
 30
0
 0
VERTEX
  8
CUT
 10
3281.68
 20
495.631
 30
0
 0
VERTEX
  8
CUT
 10
3234.84
 20
490.16
 30
0
 0
VERTEX
  8
CUT
 10
3218.3
 20
488.029
 30
0
 0
VERTEX
  8
CUT
 10
3217.74
 20
487.333
 30
0
 0
VERTEX
  8
CUT
 10
3216.79
 20
486.642
 30
0
 0
VERTEX
  8
CUT
 10
3215.69
 20
486.218
 30
0
 0
VERTEX
  8
CUT
 10
3214.52
 20
486.096
 30
0
 0
VERTEX
  8
CUT
 10
3213.37
 20
486.279
 30
0
 0
VERTEX
  8
CUT
 10
3212.29
 20
486.756
 30
0
 0
VERTEX
  8
CUT
 10
3211.76
 20
487.186
 30
0
 0
VERTEX
  8
CUT
 10
3192.97
 20
484.745
 30
0
 0
VERTEX
  8
CUT
 10
3192.81
 20
483.736
 30
0
 0
VERTEX
  8
CUT
 10
3192.33
 20
482.664
 30
0
 0
VERTEX
  8
CUT
 10
3191.59
 20
481.75
 30
0
 0
VERTEX
  8
CUT
 10
3190.64
 20
481.057
 30
0
 0
VERTEX
  8
CUT
 10
3189.55
 20
480.635
 30
0
 0
VERTEX
  8
CUT
 10
3188.38
 20
480.511
 30
0
 0
VERTEX
  8
CUT
 10
3187.22
 20
480.693
 30
0
 0
VERTEX
  8
CUT
 10
3186.14
 20
481.168
 30
0
 0
VERTEX
  8
CUT
 10
3185.23
 20
481.908
 30
0
 0
VERTEX
  8
CUT
 10
3184.54
 20
482.857
 30
0
 0
VERTEX
  8
CUT
 10
3184.25
 20
483.617
 30
0
 0
VERTEX
  8
CUT
 10
3156.37
 20
480.015
 30
0
 0
VERTEX
  8
CUT
 10
3121.68
 20
475.453
 30
0
 0
VERTEX
  8
CUT
 10
3120.69
 20
475.27
 30
0
 0
VERTEX
  8
CUT
 10
3120.14
 20
474.6
 30
0
 0
VERTEX
  8
CUT
 10
3119.19
 20
473.904
 30
0
 0
VERTEX
  8
CUT
 10
3118.1
 20
473.485
 30
0
 0
VERTEX
  8
CUT
 10
3116.93
 20
473.36
 30
0
 0
VERTEX
  8
CUT
 10
3115.77
 20
473.543
 30
0
 0
VERTEX
  8
CUT
 10
3114.69
 20
474.018
 30
0
 0
VERTEX
  8
CUT
 10
3114.53
 20
474.15
 30
0
 0
VERTEX
  8
CUT
 10
3110.06
 20
473.34
 30
0
 0
VERTEX
  8
CUT
 10
3099.2
 20
469.578
 30
0
  0
SEQEND
  0
TEXT
  8
ANNOTATION
 10
3024.75
 20
656.594
 30
0
 40
6.35001
  1

 50
0
 41
1
 71
0
 72
0
 73
0
  0
TEXT
  8
ANNOTATION
 10
3154.37
 20
682.192
 30
0
 40
6.35001
  1

 50
0
 41
1
 71
0
 72
0
 73
0
  0
TEXT
  8
ANNOTATION
 10
3255.36
 20
696.038
 30
0
 40
6.35001
  1

 50
0
 41
1
 71
0
 72
0
 73
0
  0
TEXT
  8
ANNOTATION
 10
3324.54
 20
628.961
 30
0
 40
6.35001
  1

 50
0
 41
1
 71
0
 72
0
 73
0
  0
TEXT
  8
ANNOTATION
 10
3414.35
 20
610.932
 30
0
 40
6.35001
  1

 50
0
 41
1
 71
0
 72
0
 73
0
  0
TEXT
  8
ANNOTATION
 10
3508.74
 20
606.805
 30
0
 40
6.35001
  1

 50
0
 41
1
 71
0
 72
0
 73
0
  0
TEXT
  8
ANNOTATION
 10
3618.41
 20
592.695
 30
0
 40
6.35001
  1

 50
0
 41
1
 71
0
 72
0
 73
0
  0
TEXT
  8
ANNOTATION
 10
3569.79
 20
428.661
 30
0
 40
6.35001
  1

 50
0
 41
1
 71
0
 72
0
 73
0
  0
TEXT
  8
ANNOTATION
 10
3468.69
 20
418.621
 30
0
 40
6.35001
  1

 50
0
 41
1
 71
0
 72
0
 73
0
  0
TEXT
  8
ANNOTATION
 10
3441.69
 20
420.892
 30
0
 40
6.35001
  1

 50
0
 41
1
 71
0
 72
0
 73
0
  0
TEXT
  8
ANNOTATION
 10
3281.47
 20
495.796
 30
0
 40
6.35001
  1

 50
0
 41
1
 71
0
 72
0
 73
0
  0
TEXT
  8
ANNOTATION
 10
3113.87
 20
474.686
 30
0
 40
6.35001
  1

 50
0
 41
1
 71
0
 72
0
 73
0
  0
TEXT
  8
ANNOTATION
 10
3211.46
 20
487.417
 30
0
 40
6.35001
  1

 50
0
 41
1
 71
0
 72
0
 73
0
  0
TEXT
  8
ANNOTATION
 10
3182.23
 20
485.626
 30
0
 40
2.99975
  1
G
 50
-1.42694
 41
1
 71
0
 72
0
 73
0
  0
TEXT
  8
ANNOTATION
 10
3377.14
 20
512.169
 30
0
 40
2.99975
  1
G P
 50
-1.42694
 41
1
 71
0
 72
0
 73
0
  0
TEXT
  8
ANNOTATION
 10
3474.55
 20
420.836
 30
0
 40
2.99975
  1
G
 50
-1.42694
 41
1
 71
0
 72
0
 73
0
  0
TEXT
  8
ANNOTATION
 10
3112.41
 20
476.353
 30
0
 40
2.99975
  1
P
 50
-1.42694
 41
1
 71
0
 72
0
 73
0
  0
TEXT
  8
ANNOTATION
 10
3217.13
 20
490.023
 30
0
 40
2.99975
  1
P
 50
-1.42694
 41
1
 71
0
 72
0
 73
0
  0
TEXT
  8
ANNOTATION
 10
3289.69
 20
498.926
 30
0
 40
2.99975
  1
P
 50
-1.42694
 41
1
 71
0
 72
0
 73
0
  0
TEXT
  8
ANNOTATION
 10
3448.64
 20
423.371
 30
0
 40
2.99975
  1
P
 50
-1.42694
 41
1
 71
0
 72
0
 73
0
  0
TEXT
  8
ANNOTATION
 10
3505.41
 20
607.699
 30
0
 40
2.99975
  1
P
 50
-1.42694
 41
1
 71
0
 72
0
 73
0
  0
TEXT
  8
ANNOTATION
 10
3412.03
 20
612.451
 30
0
 40
2.99975
  1
P
 50
-1.42694
 41
1
 71
0
 72
0
 73
0
  0
TEXT
  8
ANNOTATION
 10
3321.54
 20
633.073
 30
0
 40
2.99975
  1
P
 50
-1.42694
 41
1
 71
0
 72
0
 73
0
  0
TEXT
  8
ANNOTATION
 10
3253.47
 20
698.448
 30
0
 40
2.99975
  1
P
 50
-1.42694
 41
1
 71
0
 72
0
 73
0
  0
TEXT
  8
ANNOTATION
 10
3150.79
 20
682.563
 30
0
 40
2.99975
  1
P
 50
-1.42694
 41
1
 71
0
 72
0
 73
0
  0
TEXT
  8
ANNOTATION
 10
3166.36
 20
611.976
 30
0
 40
6.99771
  1
Daimler
 50
0
 41
1
 71
0
 72
0
 73
0
  0
TEXT
  8
ANNOTATION
 10
3166.36
 20
375.046
 30
0
 40
6.99771
  1
X204
 50
0
 41
1
 71
0
 72
0
 73
0
  0
TEXT
  8
ANNOTATION
 10
3166.36
 20
138.115
 30
0
 40
6.99771
  1
TMF VL
 50
0
 41
1
 71
0
 72
0
 73
0
  0
TEXT
  8
ANNOTATION
 10
3166.36
 20
-98.8153
 30
0
 40
6.99771
  1
14810  st.02
 50
0
 41
1
 71
0
 72
0
 73
0
  0
TEXT
  8
ANNOTATION
 10
3257.94
 20
561.173
 30
0
 40
6.99771
  1
TV-TMF-VL-LL-01-02L
 50
0
 41
1
 71
0
 72
0
 73
0
 0
ENDBLK
 0
BLOCK
  8
LAYER0
  2
BLOCK6
 70
64
 10
0
 20
0
 30
0
  3
BLOCK6
  0
POINT
  8
D
 10
4238.17
 20
659.769
 30
0
  0
POINT
  8
D
 10
4108.55
 20
685.367
 30
0
  0
POINT
  8
D
 10
4007.56
 20
699.213
 30
0
  0
POINT
  8
D
 10
3938.38
 20
632.136
 30
0
 0
LINE
  8
F
 10
3935.3
 20
621.28
 30
0
 11
3930.01
 21
628.687
 31
0
 0
LINE
  8
F
 10
3921.26
 20
613.767
 30
0
 11
3918.37
 21
622.365
 31
0
 0
LINE
  8
F
 10
3912.07
 20
611.43
 30
0
 11
3911.06
 21
620.498
 31
0
  0
POINT
  8
D
 10
3848.58
 20
614.107
 30
0
  0
POINT
  8
D
 10
3754.18
 20
609.98
 30
0
  0
POINT
  8
D
 10
3644.51
 20
595.87
 30
0
  0
POINT
  8
D
 10
3693.13
 20
431.836
 30
0
  0
POINT
  8
D
 10
3794.23
 20
421.796
 30
0
  0
POINT
  8
D
 10
3821.23
 20
424.067
 30
0
  0
POINT
  8
D
 10
3821.23
 20
424.067
 30
0
  0
POINT
  8
D
 10
3884.44
 20
509.649
 30
0
  0
POINT
  8
D
 10
3981.45
 20
498.971
 30
0
  0
POINT
  8
D
 10
4077.6
 20
485.011
 30
0
  0
POINT
  8
D
 10
4149.06
 20
477.861
 30
0
 0
LINE
  8
F
 10
3818.59
 20
513.061
 30
0
 11
3826.94
 21
509.713
 31
0
 0
LINE
  8
F
 10
3821.38
 20
517.318
 30
0
 11
3827.69
 21
510.902
 31
0
 0
LINE
  8
F
 10
3825.02
 20
520.008
 30
0
 11
3829.26
 21
512.192
 31
0
 0
LINE
  8
F
 10
3830.83
 20
521.433
 30
0
 11
3831.08
 21
512.436
 31
0
 0
LINE
  8
Z
 10
4096.53
 20
689.843
 30
0
 11
4168.6
 21
473.744
 31
0
 0
LINE
  8
Z
 10
4089.56
 20
690.866
 30
0
 11
4163.12
 21
470.884
 31
0
 0
LINE
  8
Z
 10
3998.62
 20
697.851
 30
0
 11
4070.06
 21
485.143
 31
0
 0
LINE
  8
Z
 10
3995.1
 20
689.081
 30
0
 11
4063.17
 21
486.035
 31
0
 0
LINE
  8
Z
 10
3927.63
 20
627.125
 30
0
 11
3970.95
 21
497.224
 31
0
 0
LINE
  8
Z
 10
3922.29
 20
623.95
 30
0
 11
3964.42
 21
497.986
 31
0
 0
LINE
  8
Z
 10
3836.41
 20
616.053
 30
0
 11
3872.4
 21
508.514
 31
0
 0
LINE
  8
Z
 10
3830.35
 20
615.789
 30
0
 11
3866
 21
509.169
 31
0
 0
LINE
  8
Z
 10
3743.18
 20
612.268
 30
0
 11
3808.04
 21
417.521
 31
0
 0
LINE
  8
Z
 10
3736.92
 20
612.073
 30
0
 11
3801.69
 21
418.067
 31
0
  0
POINT
  8
D
 10
4051.46
 20
490.592
 30
0
 0
POLYLINE
  8
CUT
  66
     1
 10
0
 20
0
 30
0
 0
VERTEX
  8
CUT
 10
4166.9
 20
469.578
 30
0
 0
VERTEX
  8
CUT
 10
4156.04
 20
473.34
 30
0
 0
VERTEX
  8
CUT
 10
4151.56
 20
474.15
 30
0
 0
VERTEX
  8
CUT
 10
4151.4
 20
474.018
 30
0
 0
VERTEX
  8
CUT
 10
4150.33
 20
473.543
 30
0
 0
VERTEX
  8
CUT
 10
4149.17
 20
473.36
 30
0
 0
VERTEX
  8
CUT
 10
4148
 20
473.485
 30
0
 0
VERTEX
  8
CUT
 10
4146.9
 20
473.904
 30
0
 0
VERTEX
  8
CUT
 10
4145.95
 20
474.6
 30
0
 0
VERTEX
  8
CUT
 10
4145.41
 20
475.27
 30
0
 0
VERTEX
  8
CUT
 10
4144.41
 20
475.453
 30
0
 0
VERTEX
  8
CUT
 10
4109.73
 20
480.015
 30
0
 0
VERTEX
  8
CUT
 10
4081.85
 20
483.617
 30
0
 0
VERTEX
  8
CUT
 10
4081.56
 20
482.857
 30
0
 0
VERTEX
  8
CUT
 10
4080.87
 20
481.908
 30
0
 0
VERTEX
  8
CUT
 10
4079.95
 20
481.168
 30
0
 0
VERTEX
  8
CUT
 10
4078.88
 20
480.693
 30
0
 0
VERTEX
  8
CUT
 10
4077.72
 20
480.511
 30
0
 0
VERTEX
  8
CUT
 10
4076.55
 20
480.635
 30
0
 0
VERTEX
  8
CUT
 10
4075.45
 20
481.057
 30
0
 0
VERTEX
  8
CUT
 10
4074.5
 20
481.75
 30
0
 0
VERTEX
  8
CUT
 10
4073.77
 20
482.664
 30
0
 0
VERTEX
  8
CUT
 10
4073.29
 20
483.736
 30
0
 0
VERTEX
  8
CUT
 10
4073.13
 20
484.745
 30
0
 0
VERTEX
  8
CUT
 10
4054.34
 20
487.186
 30
0
 0
VERTEX
  8
CUT
 10
4053.8
 20
486.756
 30
0
 0
VERTEX
  8
CUT
 10
4052.73
 20
486.279
 30
0
 0
VERTEX
  8
CUT
 10
4051.57
 20
486.096
 30
0
 0
VERTEX
  8
CUT
 10
4050.4
 20
486.218
 30
0
 0
VERTEX
  8
CUT
 10
4049.3
 20
486.642
 30
0
 0
VERTEX
  8
CUT
 10
4048.36
 20
487.333
 30
0
 0
VERTEX
  8
CUT
 10
4047.79
 20
488.029
 30
0
 0
VERTEX
  8
CUT
 10
4031.25
 20
490.16
 30
0
 0
VERTEX
  8
CUT
 10
3984.42
 20
495.631
 30
0
 0
VERTEX
  8
CUT
 10
3983.79
 20
495.128
 30
0
 0
VERTEX
  8
CUT
 10
3982.72
 20
494.651
 30
0
 0
VERTEX
  8
CUT
 10
3981.56
 20
494.47
 30
0
 0
VERTEX
  8
CUT
 10
3980.39
 20
494.595
 30
0
 0
VERTEX
  8
CUT
 10
3979.29
 20
495.017
 30
0
 0
VERTEX
  8
CUT
 10
3978.35
 20
495.71
 30
0
 0
VERTEX
  8
CUT
 10
3977.76
 20
496.424
 30
0
 0
VERTEX
  8
CUT
 10
3924.64
 20
502.644
 30
0
 0
VERTEX
  8
CUT
 10
3887.86
 20
506.782
 30
0
 0
VERTEX
  8
CUT
 10
3887.7
 20
506.546
 30
0
 0
VERTEX
  8
CUT
 10
3886.78
 20
505.809
 30
0
 0
VERTEX
  8
CUT
 10
3885.7
 20
505.331
 30
0
 0
VERTEX
  8
CUT
 10
3884.55
 20
505.151
 30
0
 0
VERTEX
  8
CUT
 10
3883.38
 20
505.276
 30
0
 0
VERTEX
  8
CUT
 10
3882.28
 20
505.697
 30
0
 0
VERTEX
  8
CUT
 10
3881.33
 20
506.391
 30
0
 0
VERTEX
  8
CUT
 10
3880.59
 20
507.303
 30
0
 0
VERTEX
  8
CUT
 10
3880.49
 20
507.584
 30
0
 0
VERTEX
  8
CUT
 10
3869.92
 20
508.801
 30
0
 0
VERTEX
  8
CUT
 10
3834.52
 20
512.156
 30
0
 0
VERTEX
  8
CUT
 10
3832.02
 20
512.388
 30
0
 0
VERTEX
  8
CUT
 10
3830.94
 20
512.443
 30
0
 0
VERTEX
  8
CUT
 10
3829.95
 20
512.418
 30
0
 0
VERTEX
  8
CUT
 10
3829.2
 20
512.159
 30
0
 0
VERTEX
  8
CUT
 10
3828.41
 20
511.603
 30
0
 0
VERTEX
  8
CUT
 10
3827.73
 20
510.965
 30
0
 0
VERTEX
  8
CUT
 10
3827.28
 20
510.287
 30
0
 0
VERTEX
  8
CUT
 10
3826.93
 20
509.68
 30
0
 0
VERTEX
  8
CUT
 10
3826.68
 20
508.844
 30
0
 0
VERTEX
  8
CUT
 10
3826.54
 20
507.879
 30
0
 0
VERTEX
  8
CUT
 10
3826.42
 20
507.008
 30
0
 0
VERTEX
  8
CUT
 10
3826.55
 20
493.792
 30
0
 0
VERTEX
  8
CUT
 10
3827.36
 20
460.226
 30
0
 0
VERTEX
  8
CUT
 10
3828.29
 20
443.178
 30
0
 0
VERTEX
  8
CUT
 10
3828.4
 20
426.147
 30
0
 0
VERTEX
  8
CUT
 10
3828.24
 20
423.399
 30
0
 0
VERTEX
  8
CUT
 10
3827.49
 20
420.836
 30
0
 0
VERTEX
  8
CUT
 10
3825.68
 20
418.913
 30
0
 0
VERTEX
  8
CUT
 10
3823.33
 20
417.653
 30
0
 0
VERTEX
  8
CUT
 10
3820.42
 20
417.089
 30
0
 0
VERTEX
  8
CUT
 10
3817.44
 20
416.909
 30
0
 0
VERTEX
  8
CUT
 10
3811.37
 20
417.234
 30
0
 0
VERTEX
  8
CUT
 10
3797.19
 20
418.456
 30
0
 0
VERTEX
  8
CUT
 10
3796.57
 20
417.953
 30
0
 0
VERTEX
  8
CUT
 10
3795.5
 20
417.478
 30
0
 0
VERTEX
  8
CUT
 10
3794.34
 20
417.295
 30
0
 0
VERTEX
  8
CUT
 10
3793.17
 20
417.419
 30
0
 0
VERTEX
  8
CUT
 10
3792.08
 20
417.844
 30
0
 0
VERTEX
  8
CUT
 10
3791.13
 20
418.534
 30
0
 0
VERTEX
  8
CUT
 10
3790.58
 20
419.208
 30
0
 0
VERTEX
  8
CUT
 10
3785.53
 20
419.764
 30
0
 0
VERTEX
  8
CUT
 10
3752.32
 20
422.189
 30
0
 0
VERTEX
  8
CUT
 10
3719.08
 20
424.224
 30
0
 0
VERTEX
  8
CUT
 10
3707.39
 20
424.747
 30
0
 0
VERTEX
  8
CUT
 10
3695.75
 20
425.659
 30
0
 0
VERTEX
  8
CUT
 10
3691.45
 20
426.548
 30
0
 0
VERTEX
  8
CUT
 10
3690.24
 20
427.216
 30
0
 0
VERTEX
  8
CUT
 10
3689.21
 20
428.136
 30
0
 0
VERTEX
  8
CUT
 10
3688.1
 20
430.229
 30
0
 0
VERTEX
  8
CUT
 10
3687.3
 20
432.512
 30
0
 0
VERTEX
  8
CUT
 10
3681.23
 20
450.98
 30
0
 0
VERTEX
  8
CUT
 10
3661.14
 20
512.04
 30
0
 0
VERTEX
  8
CUT
 10
3641.54
 20
572.324
 30
0
 0
VERTEX
  8
CUT
 10
3638.84
 20
580.335
 30
0
 0
VERTEX
  8
CUT
 10
3636.67
 20
588.473
 30
0
 0
VERTEX
  8
CUT
 10
3636.22
 20
591.532
 30
0
 0
VERTEX
  8
CUT
 10
3636.34
 20
594.58
 30
0
 0
VERTEX
  8
CUT
 10
3637.68
 20
598.286
 30
0
 0
VERTEX
  8
CUT
 10
3639.85
 20
601.595
 30
0
 0
VERTEX
  8
CUT
 10
3643.28
 20
604.976
 30
0
 0
VERTEX
  8
CUT
 10
3645.25
 20
606.363
 30
0
 0
VERTEX
  8
CUT
 10
3647.38
 20
607.475
 30
0
 0
VERTEX
  8
CUT
 10
3650.65
 20
608.453
 30
0
 0
VERTEX
  8
CUT
 10
3654.02
 20
609.058
 30
0
 0
VERTEX
  8
CUT
 10
3660.91
 20
609.624
 30
0
 0
VERTEX
  8
CUT
 10
3679.34
 20
610.516
 30
0
 0
VERTEX
  8
CUT
 10
3697.8
 20
610.846
 30
0
 0
VERTEX
  8
CUT
 10
3750.49
 20
612.497
 30
0
 0
VERTEX
  8
CUT
 10
3750.92
 20
613.078
 30
0
 0
VERTEX
  8
CUT
 10
3751.84
 20
613.818
 30
0
 0
VERTEX
  8
CUT
 10
3752.91
 20
614.295
 30
0
 0
VERTEX
  8
CUT
 10
3754.07
 20
614.475
 30
0
 0
VERTEX
  8
CUT
 10
3755.24
 20
614.351
 30
0
 0
VERTEX
  8
CUT
 10
3756.33
 20
613.929
 30
0
 0
VERTEX
  8
CUT
 10
3757.28
 20
613.236
 30
0
 0
VERTEX
  8
CUT
 10
3757.66
 20
612.769
 30
0
 0
VERTEX
  8
CUT
 10
3769.01
 20
613.106
 30
0
 0
VERTEX
  8
CUT
 10
3844.74
 20
616.416
 30
0
 0
VERTEX
  8
CUT
 10
3845.31
 20
617.206
 30
0
 0
VERTEX
  8
CUT
 10
3846.23
 20
617.948
 30
0
 0
VERTEX
  8
CUT
 10
3847.3
 20
618.425
 30
0
 0
VERTEX
  8
CUT
 10
3848.46
 20
618.606
 30
0
 0
VERTEX
  8
CUT
 10
3849.63
 20
618.481
 30
0
 0
VERTEX
  8
CUT
 10
3850.73
 20
618.057
 30
0
 0
VERTEX
  8
CUT
 10
3851.68
 20
617.369
 30
0
 0
VERTEX
  8
CUT
 10
3852.18
 20
616.741
 30
0
 0
VERTEX
  8
CUT
 10
3852.97
 20
616.777
 30
0
 0
VERTEX
  8
CUT
 10
3892.91
 20
618.418
 30
0
 0
VERTEX
  8
CUT
 10
3904.08
 20
619.441
 30
0
 0
VERTEX
  8
CUT
 10
3909.63
 20
620.206
 30
0
 0
VERTEX
  8
CUT
 10
3915.11
 20
621.334
 30
0
 0
VERTEX
  8
CUT
 10
3919.57
 20
622.753
 30
0
 0
VERTEX
  8
CUT
 10
3923.84
 20
624.638
 30
0
 0
VERTEX
  8
CUT
 10
3928.99
 20
627.976
 30
0
 0
VERTEX
  8
CUT
 10
3933.94
 20
631.626
 30
0
 0
VERTEX
  8
CUT
 10
3933.88
 20
632.024
 30
0
 0
VERTEX
  8
CUT
 10
3934
 20
633.193
 30
0
 0
VERTEX
  8
CUT
 10
3934.42
 20
634.29
 30
0
 0
VERTEX
  8
CUT
 10
3935.12
 20
635.24
 30
0
 0
VERTEX
  8
CUT
 10
3936.03
 20
635.979
 30
0
 0
VERTEX
  8
CUT
 10
3937.1
 20
636.454
 30
0
 0
VERTEX
  8
CUT
 10
3938.27
 20
636.637
 30
0
 0
VERTEX
  8
CUT
 10
3939.43
 20
636.513
 30
0
 0
VERTEX
  8
CUT
 10
3939.83
 20
636.36
 30
0
 0
VERTEX
  8
CUT
 10
3951.66
 20
646.452
 30
0
 0
VERTEX
  8
CUT
 10
3968.06
 20
660.335
 30
0
 0
VERTEX
  8
CUT
 10
3984.23
 20
674.475
 30
0
 0
VERTEX
  8
CUT
 10
3988.99
 20
678.534
 30
0
 0
VERTEX
  8
CUT
 10
3991.19
 20
680.714
 30
0
 0
VERTEX
  8
CUT
 10
3993.12
 20
683.114
 30
0
 0
VERTEX
  8
CUT
 10
3994.32
 20
685.916
 30
0
 0
VERTEX
  8
CUT
 10
3995.07
 20
688.903
 30
0
 0
VERTEX
  8
CUT
 10
3995.99
 20
694.468
 30
0
 0
VERTEX
  8
CUT
 10
3996.49
 20
695.685
 30
0
 0
VERTEX
  8
CUT
 10
3999.68
 20
698.933
 30
0
 0
VERTEX
  8
CUT
 10
4003.53
 20
702.807
 30
0
 0
VERTEX
  8
CUT
 10
4003.95
 20
703.073
 30
0
 0
VERTEX
  8
CUT
 10
4004.74
 20
703.396
 30
0
 0
VERTEX
  8
CUT
 10
4006.21
 20
703.655
 30
0
 0
VERTEX
  8
CUT
 10
4007.45
 20
703.708
 30
0
 0
VERTEX
  8
CUT
 10
4008.62
 20
703.586
 30
0
 0
VERTEX
  8
CUT
 10
4009.72
 20
703.165
 30
0
 0
VERTEX
  8
CUT
 10
4010.67
 20
702.471
 30
0
 0
VERTEX
  8
CUT
 10
4010.79
 20
702.319
 30
0
 0
VERTEX
  8
CUT
 10
4016.78
 20
701.488
 30
0
 0
VERTEX
  8
CUT
 10
4066.88
 20
694.196
 30
0
 0
VERTEX
  8
CUT
 10
4105.39
 20
688.542
 30
0
 0
VERTEX
  8
CUT
 10
4106.21
 20
689.205
 30
0
 0
VERTEX
  8
CUT
 10
4107.28
 20
689.682
 30
0
 0
VERTEX
  8
CUT
 10
4108.44
 20
689.863
 30
0
 0
VERTEX
  8
CUT
 10
4109.61
 20
689.741
 30
0
 0
VERTEX
  8
CUT
 10
4110.71
 20
689.317
 30
0
 0
VERTEX
  8
CUT
 10
4111.66
 20
688.626
 30
0
 0
VERTEX
  8
CUT
 10
4112.39
 20
687.711
 30
0
 0
VERTEX
  8
CUT
 10
4112.48
 20
687.508
 30
0
 0
VERTEX
  8
CUT
 10
4135.96
 20
684.067
 30
0
 0
VERTEX
  8
CUT
 10
4203.5
 20
673.475
 30
0
 0
VERTEX
  8
CUT
 10
4219.19
 20
670.935
 30
0
 0
VERTEX
  8
CUT
 10
4231.4
 20
668.969
 30
0
 0
VERTEX
  8
CUT
 10
4239.91
 20
667.087
 30
0
 0
VERTEX
  8
CUT
 10
4243.92
 20
665.446
 30
0
 0
VERTEX
  8
CUT
 10
4245.63
 20
664.191
 30
0
 0
VERTEX
  8
CUT
 10
4246.89
 20
662.565
 30
0
 0
VERTEX
  8
CUT
 10
4247.28
 20
660.312
 30
0
 0
VERTEX
  8
CUT
 10
4247.01
 20
657.986
 30
0
 0
VERTEX
  8
CUT
 10
4245.47
 20
653.645
 30
0
 0
VERTEX
  8
CUT
 10
4243.46
 20
649.449
 30
0
 0
VERTEX
  8
CUT
 10
4225.43
 20
608.766
 30
0
 0
VERTEX
  8
CUT
 10
4207.82
 20
567.897
 30
0
 0
VERTEX
  8
CUT
 10
4189.59
 20
525.27
 30
0
 0
VERTEX
  8
CUT
 10
4166.9
 20
469.578
 30
0
  0
SEQEND
  0
TEXT
  8
ANNOTATION
 10
4235
 20
656.594
 30
0
 40
6.35001
  1

 50
0
 41
1
 71
0
 72
0
 73
0
  0
TEXT
  8
ANNOTATION
 10
4105.38
 20
682.192
 30
0
 40
6.35001
  1

 50
0
 41
1
 71
0
 72
0
 73
0
  0
TEXT
  8
ANNOTATION
 10
4004.39
 20
696.038
 30
0
 40
6.35001
  1

 50
0
 41
1
 71
0
 72
0
 73
0
  0
TEXT
  8
ANNOTATION
 10
3935.2
 20
628.961
 30
0
 40
6.35001
  1

 50
0
 41
1
 71
0
 72
0
 73
0
  0
TEXT
  8
ANNOTATION
 10
3845.4
 20
610.932
 30
0
 40
6.35001
  1

 50
0
 41
1
 71
0
 72
0
 73
0
  0
TEXT
  8
ANNOTATION
 10
3751.01
 20
606.805
 30
0
 40
6.35001
  1

 50
0
 41
1
 71
0
 72
0
 73
0
  0
TEXT
  8
ANNOTATION
 10
3641.33
 20
592.695
 30
0
 40
6.35001
  1

 50
0
 41
1
 71
0
 72
0
 73
0
  0
TEXT
  8
ANNOTATION
 10
3689.95
 20
428.661
 30
0
 40
6.35001
  1

 50
0
 41
1
 71
0
 72
0
 73
0
  0
TEXT
  8
ANNOTATION
 10
3818.05
 20
420.892
 30
0
 40
6.35001
  1

 50
0
 41
1
 71
0
 72
0
 73
0
  0
TEXT
  8
ANNOTATION
 10
4074.43
 20
481.836
 30
0
 40
6.35001
  1

 50
0
 41
1
 71
0
 72
0
 73
0
  0
TEXT
  8
ANNOTATION
 10
4080.87
 20
485.55
 30
0
 40
2.99975
  1
G
 50
1.42694
 41
1
 71
0
 72
0
 73
0
  0
TEXT
  8
ANNOTATION
 10
3879.96
 20
511.946
 30
0
 40
2.99975
  1
G P
 50
1.42694
 41
1
 71
0
 72
0
 73
0
  0
TEXT
  8
ANNOTATION
 10
3788.54
 20
420.759
 30
0
 40
2.99975
  1
G
 50
1.42694
 41
1
 71
0
 72
0
 73
0
  0
TEXT
  8
ANNOTATION
 10
4150.68
 20
476.276
 30
0
 40
2.99975
  1
P
 50
1.42694
 41
1
 71
0
 72
0
 73
0
  0
TEXT
  8
ANNOTATION
 10
4045.97
 20
489.944
 30
0
 40
2.99975
  1
P
 50
1.42694
 41
1
 71
0
 72
0
 73
0
  0
TEXT
  8
ANNOTATION
 10
3973.41
 20
498.849
 30
0
 40
2.99975
  1
P
 50
1.42694
 41
1
 71
0
 72
0
 73
0
  0
TEXT
  8
ANNOTATION
 10
3814.45
 20
423.294
 30
0
 40
2.99975
  1
P
 50
1.42694
 41
1
 71
0
 72
0
 73
0
  0
TEXT
  8
ANNOTATION
 10
3757.68
 20
607.623
 30
0
 40
2.99975
  1
P
 50
1.42694
 41
1
 71
0
 72
0
 73
0
  0
TEXT
  8
ANNOTATION
 10
3851.06
 20
612.375
 30
0
 40
2.99975
  1
P
 50
1.42694
 41
1
 71
0
 72
0
 73
0
  0
TEXT
  8
ANNOTATION
 10
3941.55
 20
632.997
 30
0
 40
2.99975
  1
P
 50
1.42694
 41
1
 71
0
 72
0
 73
0
  0
TEXT
  8
ANNOTATION
 10
4009.63
 20
698.372
 30
0
 40
2.99975
  1
P
 50
1.42694
 41
1
 71
0
 72
0
 73
0
  0
TEXT
  8
ANNOTATION
 10
4112.31
 20
682.487
 30
0
 40
2.99975
  1
P
 50
1.42694
 41
1
 71
0
 72
0
 73
0
  0
TEXT
  8
ANNOTATION
 10
4047.08
 20
621.707
 30
0
 40
6.99771
  1
Daimler
 50
0
 41
1
 71
0
 72
0
 73
0
  0
TEXT
  8
ANNOTATION
 10
4047.08
 20
384.776
 30
0
 40
6.99771
  1
X204
 50
0
 41
1
 71
0
 72
0
 73
0
  0
TEXT
  8
ANNOTATION
 10
4047.08
 20
147.846
 30
0
 40
6.99771
  1
TMF VR
 50
0
 41
1
 71
0
 72
0
 73
0
  0
TEXT
  8
ANNOTATION
 10
4047.08
 20
-89.0845
 30
0
 40
6.99771
  1
14809  St.02
 50
0
 41
1
 71
0
 72
0
 73
0
  0
TEXT
  8
ANNOTATION
 10
3875.2
 20
561.173
 30
0
 40
6.99771
  1
TV-TMF-VR-LL-01-02L
 50
0
 41
1
 71
0
 72
0
 73
0
 0
ENDBLK
 0
ENDSEC
 0
SECTION
 2
ENTITIES
 999
_COLORceiG_~!12632256
 999
_COLORceiCUT_~!255
 999
_COLORceiANNOTATION_~!16711680
 999
_COLORceiD_~!16711680
 999
_COLORceiF_~!16777215
 999
_COLORceiZ_~!255
 999
_COLORceiI_~!65280
 999
_FRONTceiG_~!F
 999
_FRONTceiCUT_~!F
 999
_FRONTceiANNOTATION_~!F
 999
_FRONTceiD_~!F
 999
_FRONTceiF_~!F
 999
_FRONTceiZ_~!F
 999
_FRONTceiI_~!F
 0
INSERT
  8
LAYER0
  2
BLOCK1
 10
0
 20
0
 30
0
 0
INSERT
  8
LAYER0
  2
BLOCK2
 10
0
 20
0
 30
0
  0
TEXT
  8
ANNOTATION
 10
1511.21
 20
774.62
 30
0
 40
6.35001
  1

 50
0
 41
1
 71
0
 72
0
 73
0
  0
TEXT
  8
ANNOTATION
 10
1390.92
 20
728.659
 30
0
 40
6.35001
  1

 50
0
 41
1
 71
0
 72
0
 73
0
  0
TEXT
  8
ANNOTATION
 10
1308.12
 20
735.951
 30
0
 40
6.35001
  1

 50
0
 41
1
 71
0
 72
0
 73
0
  0
TEXT
  8
ANNOTATION
 10
1294.14
 20
738.336
 30
0
 40
6.35001
  1

 50
0
 41
1
 71
0
 72
0
 73
0
  0
TEXT
  8
ANNOTATION
 10
1006.02
 20
829.616
 30
0
 40
6.35001
  1

 50
0
 41
1
 71
0
 72
0
 73
0
 0
INSERT
  8
LAYER0
  2
BLOCK3
 10
0
 20
0
 30
0
  0
TEXT
  8
ANNOTATION
 10
1648.82
 20
211.854
 30
0
 40
6.35001
  1

 50
0
 41
1
 71
0
 72
0
 73
0
  0
TEXT
  8
ANNOTATION
 10
1839.01
 20
1.32842
 30
0
 40
6.35001
  1

 50
0
 41
1
 71
0
 72
0
 73
0
  0
TEXT
  8
ANNOTATION
 10
1921.81
 20
8.62078
 30
0
 40
6.35001
  1

 50
0
 41
1
 71
0
 72
0
 73
0
 0
INSERT
  8
LAYER0
  2
BLOCK4
 10
0
 20
0
 30
0
 0
INSERT
  8
LAYER0
  2
BLOCK5
 10
0
 20
0
 30
0
  0
TEXT
  8
ANNOTATION
 10
3378.49
 20
506.474
 30
0
 40
6.35001
  1

 50
0
 41
1
 71
0
 72
0
 73
0
  0
TEXT
  8
ANNOTATION
 10
3185.32
 20
481.836
 30
0
 40
6.35001
  1

 50
0
 41
1
 71
0
 72
0
 73
0
 0
INSERT
  8
LAYER0
  2
BLOCK6
 10
0
 20
0
 30
0
  0
TEXT
  8
ANNOTATION
 10
3791.05
 20
418.621
 30
0
 40
6.35001
  1

 50
0
 41
1
 71
0
 72
0
 73
0
  0
TEXT
  8
ANNOTATION
 10
3881.26
 20
506.474
 30
0
 40
6.35001
  1

 50
0
 41
1
 71
0
 72
0
 73
0
  0
TEXT
  8
ANNOTATION
 10
3978.27
 20
495.796
 30
0
 40
6.35001
  1

 50
0
 41
1
 71
0
 72
0
 73
0
  0
TEXT
  8
ANNOTATION
 10
4145.88
 20
474.686
 30
0
 40
6.35001
  1

 50
0
 41
1
 71
0
 72
0
 73
0
  0
TEXT
  8
ANNOTATION
 10
4048.28
 20
487.417
 30
0
 40
6.35001
  1

 50
0
 41
1
 71
0
 72
0
 73
0
 0
ENDSEC
 0
EOF
